<svg width="26" height="23" viewBox="0 0 26 23" fill="none" xmlns="http://www.w3.org/2000/svg">
<path d="M13 4.0625C13 6.30616 11.1812 8.125 8.9375 8.125C6.69384 8.125 4.875 6.30616 4.875 4.0625C4.875 1.81884 6.69384 0 8.9375 0C11.1812 0 13 1.81884 13 4.0625Z" fill="#0A5FAE"/>
<path d="M4.875 11.375C2.18261 11.375 0 13.5576 0 16.25V22.75H13V11.375H4.875Z" fill="#0A5FAE"/>
<path d="M21.125 11.375H16.25V22.75H26V16.25C26 13.5576 23.8174 11.375 21.125 11.375Z" fill="#0A5FAE"/>
<path d="M19.5 8.125C21.2949 8.125 22.75 6.66993 22.75 4.875C22.75 3.08007 21.2949 1.625 19.5 1.625C17.7051 1.625 16.25 3.08007 16.25 4.875C16.25 6.66993 17.7051 8.125 19.5 8.125Z" fill="#0A5FAE"/>
</svg>
