<svg width="26" height="20" viewBox="0 0 26 20" fill="none" xmlns="http://www.w3.org/2000/svg">
<path d="M9.504 17.225C9.30133 17.225 9.09867 17.1667 8.93867 17.0417C8.62933 16.8 8.62933 16.4 8.93867 16.1583L15.8933 10.725C16.4053 10.325 16.4053 9.67502 15.8933 9.27502L8.93867 3.84168C8.62933 3.60002 8.62933 3.20002 8.93867 2.95835C9.248 2.71668 9.76 2.71668 10.0693 2.95835L17.024 8.39168C17.568 8.81668 17.8773 9.39168 17.8773 10C17.8773 10.6084 17.5787 11.1834 17.024 11.6084L10.0693 17.0417C9.90933 17.1584 9.70666 17.225 9.504 17.225Z" fill="#292D32"/>
</svg>
