<svg width="245" height="220" viewBox="0 0 245 220" fill="none" xmlns="http://www.w3.org/2000/svg">
<path d="M80.8524 22.28C83.063 21.378 85.2399 20.3889 87.4908 19.5866C96.9554 16.2194 106.774 14.4108 116.829 13.8905C128.337 13.2951 139.64 14.6246 150.681 17.833C162.858 21.3716 173.949 26.9338 183.944 34.4961C192.606 41.0499 199.933 48.7861 205.962 57.6524C206.369 58.2509 207.009 58.7889 206.47 59.7028C206.25 60.077 206.466 60.69 206.485 61.2982C207.058 61.1853 207.531 61.0924 208.169 60.9661C209.572 63.4865 210.99 66.0272 212.483 68.7078C211.087 68.8958 209.915 69.112 208.736 69.1724C208.431 69.1889 207.985 68.7858 207.797 68.4689C205.92 65.3076 204.237 62.0284 202.188 58.9776C200.431 56.3618 198.334 53.9438 196.271 51.5303C186.528 40.1283 174.604 31.4566 160.567 25.4884C149.542 20.8033 137.995 18.2381 125.944 17.7387C119.33 17.4644 112.783 17.9706 106.234 18.8463C101.881 19.4285 97.6669 20.5176 93.5175 21.777C89.3616 23.0396 85.2473 24.5225 81.2981 26.2897C77.3185 28.0721 73.4875 30.2015 69.7289 32.3949C64.6728 35.3493 60.1261 38.9668 55.7887 42.8357C52.9072 45.4054 50.2661 48.1843 47.7998 51.1075C46.9706 52.0918 46.2243 52.5928 44.9576 52.0543C44.7589 51.9692 44.5155 51.9774 44.2345 51.9347C43.6128 52.8888 44.2274 53.7927 44.2806 54.6961C44.2951 54.9537 44.3306 55.2755 44.1952 55.4638C42.9708 57.1994 41.7102 58.9108 40.3907 60.7286C39.5385 60.0626 38.7854 60.5176 38.4167 61.2116C38.2412 61.5395 38.7685 62.2135 39.0567 62.9242C35.8416 68.1745 32.8989 73.8847 30.8881 79.9794C29.6064 83.8662 28.6128 87.8438 27.5185 91.7858C27.3404 92.4296 26.9142 92.7152 26.4478 93.1562C25.4112 94.1393 24.1743 93.7243 22.8874 94.287C23.2726 92.4027 23.5798 90.6855 23.9806 88.9871C27.0164 76.1428 32.5364 64.3733 40.5583 53.6897C46.3411 45.9859 53.1715 39.264 61.0113 33.4868C61.4294 33.1776 61.8906 32.8761 62.3838 32.7134C63.3525 32.395 64.4687 32.3206 64.6036 31.0003C64.6156 30.8756 64.8839 30.7679 65.041 30.6639C69.8571 27.5024 74.918 24.7554 80.2232 22.4207C80.4289 22.3303 80.6635 22.2942 80.8828 22.2334C80.8409 22.3285 80.7869 22.4208 80.7596 22.5207C80.6626 22.8604 80.5752 23.2011 80.4831 23.5424C80.836 23.5821 81.2622 23.7573 81.5254 23.6301C81.9057 23.4447 82.1672 23.0358 82.48 22.7229C82.2338 22.5212 82.0143 22.2308 81.7317 22.1458C81.4738 22.0709 81.1447 22.2249 80.8468 22.274L80.8524 22.28ZM69.6435 31.3996C70.4254 30.5693 71.2204 29.7485 71.9524 28.8802C71.9963 28.8296 71.5696 28.2069 71.299 28.1561C70.5374 28.0126 68.675 29.2883 68.4207 30.0161C68.1257 30.8636 68.5041 31.316 69.6435 31.3996ZM88.146 21.3084C89.4561 21.9686 90.6804 21.8842 91.3962 20.9688C91.6572 20.6361 91.7548 19.9831 91.5931 19.6111C91.4821 19.362 90.7652 19.2058 90.3538 19.259C89.1816 19.4125 88.5361 20.2042 88.146 21.3084ZM25.5842 87.9633C26.8272 88.2612 27.6795 87.9114 27.7069 87.0016C27.719 86.6397 27.2822 86.0587 26.9172 85.9356C26.3194 85.7343 25.6414 86.7966 25.5842 87.9633ZM111.821 17.1427C112.127 16.6719 112.408 16.3856 112.477 16.0565C112.501 15.9368 111.941 15.5291 111.772 15.5876C111.44 15.7018 111.195 16.0502 110.915 16.3005C111.16 16.5292 111.406 16.7579 111.821 17.1427Z" fill="#257754"/>
<path d="M104.278 204.875C104.774 204.396 105.164 204.091 105.458 203.711C105.666 203.444 105.736 203.081 105.868 202.761C105.46 202.612 104.992 202.264 104.656 202.356C104.021 202.533 103.364 202.87 102.889 203.31C101.91 204.214 100.93 204.339 99.6004 204.042C86.7811 201.173 74.9814 196.125 64.2152 188.866C57.9096 184.615 52.1754 179.733 47.0594 174.192C46.9598 174.084 46.8766 173.961 46.8366 173.911C47.8744 173.127 48.8917 172.361 49.8433 171.64C52.6487 174.224 55.4984 177.062 58.5785 179.645C72.4119 191.243 88.4211 198.46 106.535 201.353C107.706 201.54 108.894 201.639 110.062 201.838C110.762 201.956 111.592 201.71 111.887 202.845C112.038 203.431 112.886 203.18 113.442 202.765C113.774 202.517 114.253 202.275 114.648 202.3C122.145 202.791 129.598 202.499 137.025 201.402C137.472 201.335 137.995 201.553 138.444 201.727C139.207 202.023 139.825 202.074 140.212 201.207C140.295 201.024 140.537 200.832 140.742 200.782C142.899 200.261 145.064 199.766 147.228 199.275C147.442 199.226 147.724 199.181 147.894 199.273C148.585 199.649 148.918 199.334 149.435 198.87C149.927 198.43 150.724 198.278 151.408 198.067C162.41 194.701 172.427 189.559 181.475 182.679C194.076 173.097 203.569 161.199 210.074 147.095C210.834 145.447 211.502 143.762 212.249 142.008C213.139 142.342 213.866 142.034 214.008 141.142C214.07 140.751 213.548 140.275 213.263 139.793C214.303 135.683 215.385 131.36 216.512 127.049C216.581 126.789 216.974 126.482 217.263 126.425C218.35 126.215 219.457 126.104 220.811 125.922C220.392 127.976 220.002 129.89 219.597 131.878C218.952 131.779 218.404 131.696 217.749 131.595C217.516 132.758 217.566 133.763 218.319 134.71C218.52 134.963 218.605 135.435 218.516 135.749C215.983 144.652 212.158 153.021 207.091 160.857C200.401 171.202 191.977 180.034 181.818 187.325C173.434 193.341 164.334 198.104 154.356 201.16C149.361 202.69 144.207 203.738 139.123 204.994C138.719 205.093 138.293 205.113 137.889 205.167C137.156 203.644 136.914 203.649 135.568 204.764C135.002 205.234 134.235 205.675 133.515 205.752C123.935 206.794 114.378 206.623 104.867 205.021C104.729 204.997 104.594 204.953 104.273 204.871L104.278 204.875ZM199.231 167.655C200.57 167.924 201.337 167.599 201.354 166.648C201.361 166.28 200.913 165.705 200.54 165.576C199.972 165.382 199.258 166.539 199.231 167.655ZM206.384 155.62C205.977 156.434 205.669 156.902 205.532 157.415C205.495 157.559 206.151 158.03 206.176 158.011C206.658 157.599 207.117 157.153 207.503 156.66C207.532 156.622 206.977 156.167 206.385 155.622L206.384 155.62ZM98.239 200.759C97.3454 200.875 96.5746 201.066 96.4819 202.023C96.4733 202.107 97.231 202.414 97.5726 202.346C98.4001 202.176 98.8649 201.709 98.239 200.759V200.759ZM163.045 194.98L163.22 195.52C163.764 195.503 164.311 195.485 164.856 195.468L164.774 193.845C164.649 193.8 164.521 193.756 164.396 193.711C163.946 194.134 163.495 194.555 163.045 194.978L163.045 194.98Z" fill="#257754"/>
<path d="M65.1113 150.843L64.554 147.04C64.9873 146.962 65.3837 146.87 65.7857 146.816C105.959 141.401 146.135 135.991 186.305 130.55C187.454 130.395 187.742 130.714 187.859 131.734C188.147 134.25 188.197 134.257 185.582 134.609C152.106 139.12 118.633 143.626 85.1571 148.135C78.9636 148.969 72.7707 149.808 66.5775 150.645C66.1299 150.705 65.6822 150.766 65.1113 150.843V150.843ZM107.361 145.009C108.762 143.605 108.82 143.078 107.757 141.863C106.217 142.731 106.048 143.899 107.361 145.009ZM84.9195 147.292C85.6302 146.802 86.6486 146.616 86.3106 145.55C86.2497 145.356 85.2912 145.172 84.9966 145.355C84.2686 145.807 84.1892 146.504 84.9195 147.292ZM95.6192 144.772C95.748 144.792 95.8764 144.811 96.0052 144.832C96.1086 144.504 96.3989 144.054 96.2708 143.879C96.0782 143.614 95.5992 143.539 95.2414 143.386C95.1731 143.476 95.1047 143.566 95.039 143.657C95.2332 144.03 95.4249 144.4 95.6192 144.772Z" fill="#257754"/>
<path d="M179.248 73.1417L56.2149 89.7203L55.6733 86.0256C56.0727 85.9538 56.5034 85.8578 56.9396 85.799C86.1677 81.865 115.399 77.9351 144.627 73.9989C155.534 72.5291 166.444 71.0635 177.344 69.5476C178.463 69.3925 178.869 69.6711 178.909 70.7217C178.937 71.4853 179.116 72.2443 179.248 73.1417ZM144.589 75.9639C145.034 75.4295 145.325 75.0771 145.618 74.7266C145.327 74.5511 144.95 74.1701 144.758 74.2429C144.323 74.4067 143.977 74.7934 143.596 75.0886C143.861 75.3236 144.126 75.5586 144.587 75.9664L144.589 75.9639Z" fill="#257754"/>
<path d="M197.327 150.276L197.563 151.887C197.854 151.908 198.144 151.929 198.49 151.956C198.448 152.096 198.432 152.244 198.363 152.358C195.345 157.425 191.8 162.129 187.76 166.484C183.661 170.9 179.153 174.895 174.177 178.391C173.372 178.956 172.565 179.517 171.731 180.039C171.043 180.467 170.486 181.13 169.407 180.692C169.025 180.537 168.102 181.036 167.751 181.474C164.971 184.986 160.69 186.124 156.833 187.917C155.756 188.418 154.522 188.595 153.392 189.005C151.764 189.596 150.201 190.368 148.548 190.879C142.281 192.82 135.86 194.077 129.288 194.533C126.597 194.719 123.895 194.859 121.198 194.838C118.402 194.814 115.598 194.67 112.819 194.394C110.077 194.123 107.341 193.711 104.638 193.194C101.936 192.679 99.2405 192.069 96.6015 191.303C85.6837 188.141 75.7471 183.157 66.8298 176.309C61.4421 172.171 56.592 167.522 52.3781 162.273C51.9878 161.786 51.7289 161.116 51.6558 160.506C51.5728 159.813 51.2756 159.486 50.6474 159.203C50.099 158.957 49.4993 158.6 49.1813 158.13C47.3708 155.454 45.637 152.73 43.8599 149.996C45.7111 149.248 45.9001 149.314 46.7296 150.699C57.0816 167.986 71.9139 180.298 91.2761 187.479C105.89 192.9 120.997 194.263 136.408 191.712C154.227 188.763 169.614 181.136 182.533 168.954C183.228 168.296 184.106 167.804 184.739 167.101C186.205 165.47 187.66 163.819 188.954 162.063C191.612 158.461 194.161 154.786 196.752 151.139C196.899 150.931 197.032 150.714 197.321 150.272L197.327 150.276Z" fill="#257754"/>
<path d="M139.252 175.464C136.889 174.628 134.788 173.94 132.739 173.134C131.681 172.717 130.862 172.722 129.923 173.446C128.165 174.799 126.3 176.024 124.243 177.469C124.261 176.509 124.258 175.773 124.295 175.039C124.377 173.347 124.519 171.659 124.548 169.968C124.555 169.618 124.26 169.146 123.953 168.928C122.067 167.598 120.139 166.327 118.226 165.032C118.081 164.933 117.953 164.809 117.656 164.563C120.074 163.929 122.301 163.28 124.563 162.778C125.598 162.549 126.09 162.071 126.382 161.108C127.019 158.992 127.788 156.913 128.577 154.605C129.685 156.172 130.699 157.577 131.681 159C133.372 161.45 133.364 161.442 136.399 161.366C138.183 161.323 139.971 161.33 142.026 161.311C140.408 163.216 138.986 164.94 137.501 166.614C136.858 167.341 136.571 167.961 137.008 168.958C137.734 170.617 138.241 172.363 138.832 174.076C138.962 174.452 139.065 174.836 139.254 175.462L139.252 175.464ZM135.621 166.64C136.07 166.116 136.376 165.757 136.685 165.398C136.346 165.219 135.945 164.835 135.689 164.912C135.287 165.029 134.984 165.457 134.638 165.754C134.909 165.997 135.178 166.241 135.623 166.641L135.621 166.64Z" fill="#257754"/>
<path d="M112.053 42.1765C113.516 44.2122 114.891 46.083 116.216 47.9874C116.635 48.5866 117.045 48.8893 117.874 48.8581C120.311 48.7692 122.753 48.8115 125.49 48.8006C124.018 50.5629 122.812 52.2155 121.377 53.6573C120.293 54.7453 120.137 55.6993 120.728 57.0628C121.519 58.887 122.071 60.8083 122.815 62.9432C121.046 62.3292 119.429 61.9586 118.013 61.2298C115.694 60.0389 113.796 60.2141 111.883 62.0044C110.744 63.0707 109.301 63.8379 107.991 64.7371C107.966 64.7539 107.918 64.7425 107.719 64.7558C107.802 62.8564 107.722 60.9453 108.009 59.0877C108.276 57.3513 107.722 56.3094 106.161 55.4593C104.632 54.6272 103.247 53.5519 101.805 52.5762C101.634 52.4604 101.497 52.3 101.204 52.033C103.271 51.4859 105.152 50.8633 107.089 50.5083C108.815 50.193 109.796 49.4835 110.183 47.7421C110.598 45.8851 111.383 44.1036 112.048 42.1749L112.053 42.1765ZM116.19 53.8953C116.876 53.5837 117.542 53.2814 117.978 53.0816C118.353 53.5055 118.638 54.0576 118.864 54.0363C119.307 53.9944 119.815 53.7134 120.116 53.382C120.361 53.1119 120.41 52.622 120.411 52.2303C120.412 51.9214 120.266 51.4019 120.077 51.3513C119.789 51.276 119.22 51.4331 119.103 51.6525C118.741 52.339 118.234 52.2663 117.589 52.2212C116.414 52.1356 116.012 52.6441 116.188 53.8956L116.19 53.8953Z" fill="#257754"/>
<path d="M199.703 70.3494C197.762 70.8033 197.772 70.7974 196.879 69.2957C196.329 68.3697 195.763 67.4481 195.168 66.5484C194.611 65.7039 193.88 64.9119 195.058 63.6054C192.981 64.0262 192.583 62.6547 191.821 61.7148C190.078 59.5646 188.325 57.4226 186.706 55.4369C186.777 54.8254 186.836 54.3208 186.894 53.814C186.37 53.7795 185.846 53.7472 185.122 53.6994C182.994 51.7801 180.708 49.6001 178.293 47.5652C170.691 41.1571 162.152 36.1886 152.677 32.8117C148.593 31.3573 144.332 30.3631 140.142 29.187C139.424 28.9862 138.677 28.9302 138.903 27.8974C138.937 27.7453 138.641 27.5255 138.497 27.3369C138.315 27.4912 138.074 27.6153 137.968 27.8087C137.846 28.0243 137.844 28.3019 137.757 28.7074C136.436 28.2589 134.866 28.7501 134.016 27.6656C133.142 27.7295 132.44 27.86 131.749 27.8189C128.244 27.6132 124.742 27.3647 121.254 27.1299C121.375 26.6057 121.513 26.0189 121.653 25.4161C153.323 24.7663 184.994 42.8542 199.703 70.3494V70.3494Z" fill="#257754"/>
<path d="M141.98 41.008C143.318 42.9062 144.5 44.5233 145.608 46.1863C146.008 46.7857 146.45 47.0215 147.186 47.0029C149.311 46.9492 151.439 46.9623 153.799 46.9486C152.658 48.3172 151.707 49.6468 150.553 50.7844C149.353 51.9709 148.962 53.0684 149.764 54.6608C150.473 56.0665 150.826 57.6364 151.425 59.3837C149.583 58.7504 147.895 58.2954 146.328 57.5938C144.87 56.9423 143.756 57.0477 142.531 58.0808C141.246 59.1668 139.77 60.0458 138.158 61.1692C138.198 59.931 138.062 58.8641 138.295 57.8775C138.971 55.0075 138.054 53.0236 135.213 51.7887C134.228 51.3599 133.406 50.5824 132.29 49.8111C134.454 49.2465 136.381 48.7117 138.326 48.2549C139.258 48.0354 139.831 47.6673 140.097 46.6873C140.588 44.876 141.271 43.1149 141.982 41.0077L141.98 41.008ZM143.89 54.4813C142.868 54.9478 142.263 55.875 142.714 56.3445C142.915 56.5546 143.587 56.6587 143.788 56.5041C144.554 55.9154 144.354 55.1883 143.89 54.4813V54.4813Z" fill="#257754"/>
<path d="M111.078 167.474C109.61 169.234 108.366 170.82 107.005 172.305C106.42 172.941 106.425 173.482 106.688 174.192C107.359 176.025 107.989 177.873 108.714 179.941C106.991 179.344 105.399 178.95 103.967 178.252C102.236 177.409 100.902 177.584 99.475 178.846C98.2814 179.902 96.8462 180.708 95.3787 181.723C95.4857 179.657 95.5582 177.752 95.7037 175.853C95.7281 175.543 96.1592 175.275 96.2375 174.951C96.3573 174.449 96.3349 173.915 96.3728 173.396C95.9455 173.42 95.5179 173.457 95.0902 173.463C94.7579 173.468 94.3455 173.546 94.1044 173.395C92.6367 172.469 91.2091 171.485 89.5415 170.372C91.2398 169.915 92.6989 169.367 94.2117 169.154C96.286 168.863 97.4152 167.908 97.8085 165.904C98.0752 164.546 98.6839 163.249 99.1397 161.925C99.1492 161.895 99.1903 161.874 99.3737 161.695C100.257 163.381 101.905 164.52 102.223 166.551C102.288 166.96 103.5 167.444 104.206 167.478C106.418 167.583 108.64 167.492 111.08 167.474L111.078 167.474Z" fill="#257754"/>
<path d="M148.769 162.349C151.134 161.723 153.208 161.218 155.246 160.606C155.699 160.471 156.184 160.027 156.383 159.607C156.794 158.741 156.939 157.76 157.348 156.895C157.755 156.034 158.354 155.258 158.98 154.27C160.153 155.919 161.143 157.397 162.24 158.797C162.521 159.158 163.13 159.467 163.598 159.48C165.737 159.536 167.881 159.48 170.314 159.461C168.746 161.33 167.349 163.004 165.929 164.661C165.83 164.777 165.546 164.807 165.36 164.782C163.963 164.604 163.484 165.185 163.98 166.552C164.563 166.302 165.141 166.049 165.796 165.766C166.505 167.807 167.184 169.754 167.937 171.921C166.247 171.337 164.653 170.95 163.225 170.252C161.492 169.405 160.141 169.593 158.711 170.831C157.527 171.856 156.136 172.661 154.838 173.566C154.721 173.528 154.601 173.49 154.484 173.452C154.716 172.161 154.958 170.874 155.171 169.578C155.212 169.329 155.163 169.061 155.114 168.808C155.063 168.535 154.851 168.248 154.904 168.008C155.163 166.854 154.645 166.197 153.64 165.601C152.049 164.659 150.562 163.555 148.771 162.346L148.769 162.349Z" fill="#257754"/>
<path d="M45.9743 70.5563C45.7911 70.0216 45.6313 69.5509 45.4688 69.0784C45.2084 69.4938 44.9814 69.9316 44.6766 70.315C44.4327 70.6208 44.0946 70.8565 43.5709 70.9696C44.0993 70.0303 44.6101 69.0822 45.159 68.1558C49.4804 60.8727 54.8094 54.3464 61.1251 48.562C61.6218 48.1058 62.0587 47.8299 62.8089 47.9906C63.6937 48.1801 64.5875 48.1134 65.1455 47.0426C64.7823 46.8051 64.396 46.5529 63.8371 46.1874C79.997 32.8567 98.704 26.0358 119.966 25.4439C119.108 26.3896 118.458 27.4056 116.817 27.4881C103.327 28.1513 90.7292 31.7976 79.0097 38.2117C70.4722 42.8837 63.0136 48.8311 56.577 55.9675C56.2145 56.3698 55.6387 56.604 55.1387 56.8795C54.4922 57.2351 53.8474 57.539 54.1439 58.4656C54.2078 58.6628 54.0026 58.9791 53.8498 59.192C51.9666 61.8353 50.2095 64.5757 48.1162 67.057C47.1857 68.1602 47.0754 69.6159 45.9795 70.56L45.9743 70.5563Z" fill="#257754"/>
<path d="M82.771 49.0334C84.0773 50.8911 85.2525 52.4421 86.2798 54.0801C86.7811 54.8784 87.3848 55.041 88.2563 55.013C90.2734 54.9515 92.2917 54.9615 94.5918 54.9401C93.0554 56.7715 91.6753 58.414 90.2994 60.0537C88.662 59.0035 88.1168 59.0501 86.7359 60.4645C86.0351 61.1809 85.4255 61.979 84.7637 62.755C86.7692 63.599 88.2243 63.2306 90.0599 61.359C90.369 62.1966 90.6505 62.9574 90.8892 63.6009C90.6098 64.0144 90.403 64.3197 90.1963 64.625C90.4831 64.7385 90.7806 64.8304 91.0507 64.973C91.225 65.0659 91.4293 65.2039 91.4951 65.3673C91.7268 65.9469 91.9053 66.5448 92.1938 67.4009C90.4377 66.7963 88.8103 66.4025 87.3532 65.6928C85.6752 64.874 84.4 65.1353 83.0379 66.281C81.8084 67.3147 80.4015 68.1554 78.899 69.2013C78.999 66.9438 79.1259 64.8706 79.1481 62.798C79.1523 62.3813 78.8694 61.8176 78.5251 61.5664C76.9994 60.452 75.4011 59.4301 73.8318 58.3685C73.6276 58.2304 73.4427 58.0652 73.1213 57.8109C75.2317 57.2581 77.167 56.7019 79.1301 56.2562C80.0542 56.0466 80.5554 55.6525 80.825 54.7436C81.3762 52.8794 82.0731 51.056 82.7694 49.0381L82.771 49.0334Z" fill="#257754"/>
<path d="M48.0826 169.463C47.0766 170.321 46.116 171.14 45.0868 172.015C39.6687 165.827 35.0784 159.042 31.313 151.466C32.6719 151.283 33.8944 151.091 35.1236 150.977C35.3327 150.958 35.6762 151.22 35.7867 151.434C39.1284 157.93 43.3359 163.883 48.0871 169.494C48.1096 169.52 48.1111 169.562 48.0777 169.462L48.0826 169.463Z" fill="#257754"/>
<path d="M208.396 127.626C207.339 131.091 206.387 134.302 205.371 137.493C204.945 138.828 204.417 140.134 203.856 141.425C203.649 141.902 203.206 142.28 202.898 142.72C202.715 142.979 202.434 143.286 202.456 143.549C202.587 145.079 201.938 146.115 200.649 147.014C199.58 147.76 198.733 148.798 197.555 149.93C198.573 147.9 199.479 146.151 200.335 144.38C202.73 139.426 204.582 134.284 205.786 128.949C206.107 127.532 207.096 127.83 208.399 127.626L208.396 127.626Z" fill="#257754"/>
<path d="M42.8421 72.3211C43.6275 73.8978 44.1987 72.5835 45.0835 72.3122C44.622 73.2313 44.2287 74.0114 43.8409 74.7819C43.4061 74.7711 43.0066 74.7623 42.2842 74.7433C43.6068 76.1558 42.6518 77.251 42.1872 78.4032C41.6611 79.7069 41.3472 81.1408 40.5696 82.286C39.7039 83.5616 39.7583 84.9973 39.2725 86.3224C38.7674 87.706 38.4392 89.1531 38.0709 90.5809C37.6126 92.3632 37.6315 92.3651 35.5341 92.4665C37.0581 85.4663 39.49 78.8293 42.8395 72.3192L42.8421 72.3211Z" fill="#257754"/>
<path d="M48.2975 119.213L55.9563 118.181L56.8752 124.45L49.2164 125.482L48.2975 119.213ZM31.4217 116.934L71.5709 111.524L72.3784 117.033L32.2293 122.443L31.4217 116.934ZM44.9015 96.3751L52.5602 95.343L53.3469 100.71L45.6881 101.742L44.9015 96.3751ZM45.2472 102.043L52.0022 101.133L52.1484 102.13C52.3711 103.65 52.2129 105.108 51.6738 106.505C51.13 107.869 50.169 109.145 48.7906 110.332C47.4122 111.518 45.5462 112.577 43.1924 113.508C40.8704 114.434 38.0084 115.207 34.6066 115.827L31.6921 110.505C34.6909 110.004 37.098 109.437 38.9134 108.805C40.7605 108.169 42.1679 107.511 43.1356 106.832C44.1032 106.153 44.7332 105.487 45.0256 104.834C45.3497 104.177 45.4723 103.579 45.3934 103.041L45.2472 102.043ZM47.1024 101.793L53.8574 100.883L54.0036 101.88C54.0825 102.419 54.3563 102.963 54.825 103.513C55.3255 104.059 56.1384 104.531 57.2639 104.928C58.3893 105.325 59.9313 105.586 61.8898 105.709C63.8483 105.833 66.325 105.741 69.32 105.434L68.0484 111.321C64.6001 111.624 61.6109 111.639 59.0808 111.367C56.5824 111.09 54.5002 110.563 52.8341 109.787C51.1679 109.011 49.8774 108.038 48.9623 106.87C48.0426 105.67 47.4714 104.31 47.2486 102.791L47.1024 101.793ZM32.7548 101.208L65.6733 96.7725L66.4809 102.282L33.5624 106.717L32.7548 101.208ZM36.8436 123.807L68.002 119.609L69.7145 131.292L46.1673 134.465L46.6964 138.074L39.1327 139.093L37.8657 130.45L61.4129 127.277L61.2319 126.042L37.6372 129.221L36.8436 123.807ZM38.7916 136.766L70.9966 132.427L71.8041 137.936L39.5992 142.275L38.7916 136.766ZM96.205 97.2593L104.482 96.1439L105.387 102.318L97.11 103.433L96.205 97.2593ZM82.3771 93.6015L88.6564 92.7553L89.2342 96.6972C89.6705 99.6734 89.6712 102.547 89.2365 105.318C88.8335 108.084 87.8585 110.588 86.3116 112.831C84.7963 115.069 82.6042 116.882 79.7353 118.27L74.8147 112.83C77.3262 111.653 79.2047 110.237 80.45 108.584C81.7224 106.895 82.5276 105.108 82.8656 103.222C83.199 101.304 83.2288 99.4114 82.955 97.5434L82.3771 93.6015ZM83.9945 93.3835L90.1786 92.5502L90.8261 96.967C91.0163 98.2652 91.3652 99.5419 91.8726 100.797C92.3754 102.021 93.0592 103.156 93.9239 104.202C94.8204 105.243 95.9385 106.142 97.2782 106.898C98.6496 107.649 100.297 108.186 102.22 108.508L99.1009 115.03C96.1075 114.465 93.6176 113.364 91.6313 111.727C89.6403 110.058 88.0809 108.024 86.9532 105.625C85.8254 103.227 85.055 100.618 84.642 97.8003L83.9945 93.3835ZM83.44 120.047L114.218 115.899L116.592 132.094L108.885 133.133L107.396 122.969L84.3241 126.078L83.44 120.047ZM102.355 88.5847L110.062 87.5463L113.96 114.142L106.254 115.181L102.355 88.5847ZM138.342 101.849L146.001 100.817L146.989 107.561L139.331 108.593L138.342 101.849ZM139.781 85.1883C141.937 84.8978 143.914 85.035 145.711 85.6C147.535 86.1292 149.024 87.0262 150.18 88.2911C151.367 89.5517 152.091 91.0686 152.351 92.8416C152.615 94.6463 152.358 96.3115 151.579 97.8371C150.832 99.3584 149.66 100.63 148.064 101.653C146.494 102.639 144.631 103.277 142.475 103.568C140.318 103.859 138.328 103.739 136.504 103.21C134.707 102.645 133.215 101.732 132.028 100.472C130.872 99.2067 130.162 97.6719 129.898 95.8672C129.638 94.0941 129.882 92.4469 130.629 90.9256C131.408 89.4 132.582 88.144 134.151 87.1577C135.748 86.1354 137.624 85.4789 139.781 85.1883ZM140.616 90.8874C139.823 90.9943 139.128 91.2171 138.531 91.5558C137.966 91.8903 137.548 92.3502 137.278 92.9354C137.004 93.489 136.922 94.1458 137.033 94.9057C137.149 95.6972 137.421 96.3386 137.849 96.8298C138.272 97.2894 138.803 97.6053 139.443 97.7774C140.115 97.9452 140.847 97.9757 141.639 97.8688C142.464 97.7577 143.159 97.5349 143.724 97.2004C144.29 96.866 144.71 96.4219 144.984 95.8683C145.254 95.2831 145.331 94.5947 145.215 93.8031C145.104 93.0432 144.837 92.4335 144.414 91.9739C143.986 91.4827 143.452 91.151 142.812 90.9789C142.173 90.8068 141.441 90.7763 140.616 90.8874ZM154.529 81.5544L162.187 80.5224L167.158 114.432L159.499 115.464L154.529 81.5544ZM161.629 94.255L169.288 93.223L170.2 99.4445L162.541 100.477L161.629 94.255ZM137.141 122.448L169.203 118.128L170.095 124.207L138.032 128.527L137.141 122.448ZM136.146 115.657L143.852 114.618L145.23 124.022L137.524 125.06L136.146 115.657ZM131.176 113.856L129.443 107.988C131.917 107.654 134.642 107.271 137.618 106.838C140.59 106.373 143.618 105.852 146.703 105.274C149.783 104.666 152.722 103.979 155.521 103.215L156.838 108.558C153.967 109.494 151.015 110.311 147.98 111.011C144.941 111.679 141.983 112.239 139.107 112.691C136.23 113.143 133.587 113.532 131.176 113.856ZM183.579 104.035L191.095 103.022L192.598 113.28L185.082 114.293L183.579 104.035ZM197.612 102.144L205.128 101.131L206.632 111.389L199.115 112.402L197.612 102.144ZM175.078 113.22L215.465 107.777L216.37 113.952L175.983 119.394L175.078 113.22ZM174.887 81.4748L206.616 77.1993L208.886 92.6819L184.815 95.9253L185.811 102.717L178.2 103.742L176.334 91.0144L200.405 87.7709L199.889 84.2565L175.771 87.5064L174.887 81.4748ZM177.74 100.608L210.421 96.2042L211.312 102.283L178.631 106.687L177.74 100.608Z" fill="#257754"/>
</svg>
