<svg width="25" height="21" viewBox="0 0 25 21" fill="none" xmlns="http://www.w3.org/2000/svg">
<line y1="-1.5" x2="17.1032" y2="-1.5" transform="matrix(-0.800366 0.599512 -0.810933 -0.585139 13.689 0)" stroke="#0A5FAE" stroke-width="3"/>
<line y1="-1.5" x2="16.8783" y2="-1.5" transform="matrix(0.811032 0.585002 -0.800263 0.599649 0 10.6334)" stroke="#0A5FAE" stroke-width="3"/>
<line y1="-1.5" x2="17.1032" y2="-1.5" transform="matrix(-0.800366 0.599512 -0.810933 -0.585139 21.6954 0.253235)" stroke="#0A5FAE" stroke-width="3"/>
<line y1="-1.5" x2="16.8783" y2="-1.5" transform="matrix(0.811032 0.585002 -0.800263 0.599649 8.00659 10.8866)" stroke="#0A5FAE" stroke-width="3"/>
<line y1="-1.5" x2="17.1032" y2="-1.5" transform="matrix(-0.800366 0.599512 -0.810933 -0.585139 13.689 0)" stroke="#0A5FAE" stroke-width="3"/>
<line y1="-1.5" x2="16.8783" y2="-1.5" transform="matrix(0.811032 0.585002 -0.800263 0.599649 0 10.6334)" stroke="#0A5FAE" stroke-width="3"/>
<line y1="-1.5" x2="17.1032" y2="-1.5" transform="matrix(-0.800366 0.599512 -0.810933 -0.585139 21.6954 0.253235)" stroke="#0A5FAE" stroke-width="3"/>
<line y1="-1.5" x2="16.8783" y2="-1.5" transform="matrix(0.811032 0.585002 -0.800263 0.599649 8.00659 10.8866)" stroke="#0A5FAE" stroke-width="3"/>
</svg>
