<svg width="62" height="62" viewBox="0 0 62 62" fill="none" xmlns="http://www.w3.org/2000/svg">
<path d="M56.8333 12.5297V43.2455C56.8333 45.7513 54.7925 48.0505 52.2867 48.3605L51.4858 48.4638C47.2492 49.0322 41.2817 50.7888 36.4767 52.8038C34.7975 53.5013 32.9375 52.2355 32.9375 50.4013V14.4672C32.9375 13.5113 33.48 12.633 34.3325 12.168C39.06 9.61049 46.2158 7.33716 51.0725 6.92383H51.2275C54.3275 6.92383 56.8333 9.42966 56.8333 12.5297Z" fill="#94B8DB"/>
<path d="M27.6675 12.168C22.94 9.61049 15.7842 7.33716 10.9275 6.92383H10.7467C7.6467 6.92383 5.14087 9.42966 5.14087 12.5297V43.2455C5.14087 45.7513 7.1817 48.0505 9.68754 48.3605L10.4884 48.4638C14.725 49.0322 20.6925 50.7888 25.4975 52.8038C27.1767 53.5013 29.0367 52.2355 29.0367 50.4013V14.4672C29.0367 13.4855 28.52 12.633 27.6675 12.168ZM12.9167 19.9955H18.7292C19.7884 19.9955 20.6667 20.8738 20.6667 21.933C20.6667 23.018 19.7884 23.8705 18.7292 23.8705H12.9167C11.8575 23.8705 10.9792 23.018 10.9792 21.933C10.9792 20.8738 11.8575 19.9955 12.9167 19.9955ZM20.6667 31.6205H12.9167C11.8575 31.6205 10.9792 30.768 10.9792 29.683C10.9792 28.6238 11.8575 27.7455 12.9167 27.7455H20.6667C21.7259 27.7455 22.6042 28.6238 22.6042 29.683C22.6042 30.768 21.7259 31.6205 20.6667 31.6205Z" fill="#94B8DB"/>
</svg>
