<svg width="35" height="35" viewBox="0 0 35 35" fill="none" xmlns="http://www.w3.org/2000/svg">
<path d="M15.7589 2.32031C16.6827 1.36592 18.213 1.36592 19.1368 2.32031C20.0044 3.21651 21.3189 3.51604 22.4894 3.08496C23.7357 2.62592 25.115 3.2902 25.5333 4.55078C25.9261 5.73474 26.9801 6.57585 28.2218 6.69531C29.5438 6.8225 30.4982 8.01879 30.3282 9.33594C30.1684 10.5731 30.7536 11.7882 31.8204 12.4346C32.9564 13.1229 33.2963 14.6156 32.5714 15.7285C31.891 16.7736 31.8909 18.1219 32.5714 19.167C33.2963 20.28 32.9564 21.7727 31.8204 22.4609C30.7536 23.1072 30.1685 24.3216 30.3282 25.5586C30.4984 26.8759 29.544 28.073 28.2218 28.2002C26.9803 28.3196 25.9262 29.1601 25.5333 30.3438C25.1151 31.6044 23.7358 32.2686 22.4894 31.8096C21.3189 31.3786 20.0043 31.679 19.1368 32.5752C18.2131 33.5295 16.6827 33.5295 15.7589 32.5752C14.8915 31.679 13.5768 31.3787 12.4064 31.8096C11.16 32.2686 9.78064 31.6044 9.36243 30.3438C8.96959 29.1601 7.91536 28.3197 6.67395 28.2002C5.3518 28.073 4.39731 26.8759 4.5675 25.5586C4.72718 24.3216 4.142 23.1073 3.07532 22.4609C1.9393 21.7727 1.5985 20.28 2.32336 19.167C3.00411 18.1218 3.00406 16.7738 2.32336 15.7285C1.59846 14.6155 1.93929 13.1228 3.07532 12.4346C4.14217 11.7882 4.72734 10.573 4.5675 9.33594C4.39754 8.01878 5.35192 6.8225 6.67395 6.69531C7.91551 6.57577 8.9697 5.73466 9.36243 4.55078C9.78074 3.29025 11.16 2.62593 12.4064 3.08496C13.5768 3.51594 14.8914 3.21655 15.7589 2.32031Z" fill="#0A5FAE" stroke="#BFDBFE" stroke-width="0.8"/>
<circle cx="17.4465" cy="17.4066" r="11.3328" fill="#0A5FAE" stroke="#BFDBFE" stroke-width="0.8"/>
<path d="M17.384 5.84375C23.9488 5.84378 29.2451 11.0567 29.2454 17.4561C29.2454 23.8556 23.9489 29.0693 17.384 29.0693C10.8191 29.0693 5.52271 23.8556 5.52271 17.4561C5.52296 11.0567 10.8193 5.84375 17.384 5.84375Z" fill="#FCC145" stroke="#FDDB94" stroke-width="1.5"/>
<path d="M14.0247 23.1728C12.9611 23.1728 12.0989 22.286 12.0989 21.192V14.589C12.0989 13.495 12.9611 12.6081 14.0247 12.6081H20.4443C21.5079 12.6081 22.3701 13.495 22.3701 14.589L22.3701 21.192C22.3701 22.286 21.5079 23.1728 20.4443 23.1728H14.0247Z" fill="#DBE8F4"/>
<path d="M14.6667 20.7464V20.6967M17.5555 20.7464V20.6967M17.5555 18.0555V18.0059M20.1233 18.0555V18.0059M12.7408 15.4143H21.7282M13.9025 11.6177V12.6082M20.4443 11.6177V12.6081M20.4443 12.6081H14.0247C12.9611 12.6081 12.0989 13.495 12.0989 14.589V21.192C12.0989 22.286 12.9611 23.1728 14.0247 23.1728H20.4443C21.5079 23.1728 22.3701 22.286 22.3701 21.192L22.3701 14.589C22.3701 13.495 21.5079 12.6081 20.4443 12.6081Z" stroke="black" stroke-width="1.5" stroke-linecap="round" stroke-linejoin="round"/>
<circle cx="21.8885" cy="22.1021" r="2.6748" fill="#DD0101"/>
<path d="M20.6046 22.4838L21.375 23.1716L23.1724 21.0317" stroke="white" stroke-linecap="round" stroke-linejoin="round"/>
</svg>