<svg width="21" height="21" viewBox="0 0 21 21" fill="none" xmlns="http://www.w3.org/2000/svg">
<path fill-rule="evenodd" clip-rule="evenodd" d="M1.16667 0C0.857247 0 0.560501 0.122916 0.341709 0.341709C0.122916 0.560501 0 0.857247 0 1.16667V10.5C0 10.8094 0.122916 11.1062 0.341709 11.325C0.560501 11.5437 0.857247 11.6667 1.16667 11.6667H2.33333V14C2.33338 14.2307 2.40183 14.4562 2.53003 14.648C2.65823 14.8398 2.84042 14.9893 3.05357 15.0776C3.26672 15.1659 3.50126 15.189 3.72754 15.144C3.95382 15.099 4.16167 14.9879 4.32483 14.8248L7.483 11.6667H14C14.3094 11.6667 14.6062 11.5437 14.825 11.325C15.0438 11.1062 15.1667 10.8094 15.1667 10.5V1.16667C15.1667 0.857247 15.0438 0.560501 14.825 0.341709C14.6062 0.122916 14.3094 0 14 0H1.16667Z" fill="#BD8509"/>
<path fill-rule="evenodd" clip-rule="evenodd" d="M5.86011 16.5841C5.899 16.5483 5.93711 16.5118 5.97444 16.4744L8.45011 13.9999H13.9999C14.9282 13.9999 15.8184 13.6312 16.4748 12.9748C17.1312 12.3184 17.4999 11.4282 17.4999 10.4999V5.83325H19.8333C20.1427 5.83325 20.4394 5.95617 20.6582 6.17496C20.877 6.39375 20.9999 6.6905 20.9999 6.99992V16.3333C20.9999 16.6427 20.877 16.9394 20.6582 17.1582C20.4394 17.377 20.1427 17.4999 19.8333 17.4999H18.6666V19.8333C18.6666 20.064 18.5981 20.2895 18.4699 20.4813C18.3417 20.6731 18.1595 20.8226 17.9464 20.9109C17.7332 20.9992 17.4987 21.0223 17.2724 20.9773C17.0461 20.9323 16.8383 20.8212 16.6751 20.6581L13.5169 17.4999H6.99994C6.73402 17.5 6.47605 17.4093 6.26875 17.2427C6.06146 17.0762 5.91728 16.8438 5.86011 16.5841Z" fill="#BD8509"/>
</svg>
