<svg width="92" height="92" viewBox="0 0 92 92" fill="none" xmlns="http://www.w3.org/2000/svg">
<path d="M77.2397 54.8203C77.2397 59.9784 69.1353 64.1629 59.1399 64.1629C49.1444 64.1629 41.0435 59.9784 41.0435 54.8203" stroke="#94B8DB" stroke-width="7.5" stroke-linecap="round" stroke-linejoin="round"/>
<path d="M32.8644 46.5226C22.869 46.5226 14.7644 42.3416 14.7644 37.1797" stroke="#94B8DB" stroke-width="7.5" stroke-linecap="round" stroke-linejoin="round"/>
<path d="M14.7644 20.8438V53.5225C14.7644 58.6845 22.869 62.8651 32.8644 62.8651" stroke="#94B8DB" stroke-width="7.5" stroke-linecap="round" stroke-linejoin="round"/>
<path d="M32.8644 30.1855C22.869 30.1855 14.7644 26.0046 14.7644 20.8428C14.7644 15.6847 22.869 11.5 32.8644 11.5C42.8598 11.5 50.9643 15.6847 50.9643 20.8428" stroke="#94B8DB" stroke-width="7.5" stroke-linecap="round" stroke-linejoin="round"/>
<path d="M77.2397 38.4824V71.1612C77.2397 76.3228 69.1353 80.5038 59.1399 80.5038C49.1444 80.5038 41.0435 76.3228 41.0435 71.1612V38.4824" stroke="#94B8DB" stroke-width="7.5" stroke-linecap="round" stroke-linejoin="round"/>
<path fill-rule="evenodd" clip-rule="evenodd" d="M77.2397 38.4814C77.2397 43.6396 69.1353 47.8244 59.1399 47.8244C49.1444 47.8244 41.0435 43.6396 41.0435 38.4814C41.0435 33.3233 49.1444 29.1387 59.1399 29.1387C69.1353 29.1387 77.2397 33.3233 77.2397 38.4814Z" stroke="#94B8DB" stroke-width="7.5" stroke-linecap="round" stroke-linejoin="round"/>
</svg>
