<svg width="26" height="26" viewBox="0 0 26 26" fill="none" xmlns="http://www.w3.org/2000/svg">
<path d="M11.8269 19.1858H9.46147C8.30506 19.1858 7.35891 20.1319 7.35891 21.2883V21.5511H6.30763C5.8766 21.5511 5.51917 21.9086 5.51917 22.3396C5.51917 22.7706 5.8766 23.1281 6.30763 23.1281H18.923C19.354 23.1281 19.7115 22.7706 19.7115 22.3396C19.7115 21.9086 19.354 21.5511 18.923 21.5511H17.8717V21.2883C17.8717 20.1319 16.9256 19.1858 15.7692 19.1858H13.4038V16.7783C13.141 16.8099 12.8781 16.8204 12.6153 16.8204C12.3525 16.8204 12.0897 16.8099 11.8269 16.7783V19.1858Z" fill="#425F98"/>
<path d="M19.4276 12.2369C20.1215 11.9741 20.7312 11.5431 21.2148 11.0595C22.1925 9.97665 22.8338 8.68357 22.8338 7.16972C22.8338 5.65587 21.6458 4.46792 20.132 4.46792H19.5433C18.8599 3.06972 17.4302 2.10254 15.7692 2.10254H9.46147C7.80044 2.10254 6.3707 3.06972 5.68736 4.46792H5.09865C3.5848 4.46792 2.39685 5.65587 2.39685 7.16972C2.39685 8.68357 3.03813 9.97665 4.01583 11.0595C4.49942 11.5431 5.10916 11.9741 5.80301 12.2369C6.89634 14.9282 9.52455 16.8205 12.6153 16.8205C15.7061 16.8205 18.3343 14.9282 19.4276 12.2369ZM15.601 8.88331L14.9492 9.68229C14.844 9.79793 14.7704 10.0292 14.781 10.1869L14.844 11.2172C14.8861 11.8479 14.434 12.1738 13.8453 11.9425L12.8887 11.5641C12.7415 11.5115 12.4892 11.5115 12.342 11.5641L11.3853 11.9425C10.7966 12.1738 10.3445 11.8479 10.3866 11.2172L10.4497 10.1869C10.4602 10.0292 10.3866 9.79793 10.2815 9.68229L9.62967 8.88331C9.21967 8.39972 9.39839 7.86357 10.0081 7.70587L11.0069 7.45357C11.1645 7.41152 11.3538 7.26434 11.4379 7.12767L11.9951 6.26562C12.342 5.72946 12.8887 5.72946 13.2356 6.26562L13.7928 7.12767C13.8769 7.26434 14.0661 7.41152 14.2238 7.45357L15.2225 7.70587C15.8322 7.86357 16.011 8.39972 15.601 8.88331Z" fill="#425F98"/>
</svg>
