<svg width="26" height="26" viewBox="0 0 26 26" fill="none" xmlns="http://www.w3.org/2000/svg">
<path d="M11.827 19.1858H9.4616C8.30519 19.1858 7.35903 20.1319 7.35903 21.2883V21.5511H6.30775C5.87672 21.5511 5.51929 21.9086 5.51929 22.3396C5.51929 22.7706 5.87672 23.1281 6.30775 23.1281H18.9231C19.3542 23.1281 19.7116 22.7706 19.7116 22.3396C19.7116 21.9086 19.3542 21.5511 18.9231 21.5511H17.8719V21.2883C17.8719 20.1319 16.9257 19.1858 15.7693 19.1858H13.4039V16.7783C13.1411 16.8099 12.8783 16.8204 12.6154 16.8204C12.3526 16.8204 12.0898 16.8099 11.827 16.7783V19.1858Z" fill="#A67509"/>
<path d="M19.4277 12.2369C20.1216 11.9741 20.7313 11.5431 21.2149 11.0595C22.1926 9.97665 22.8339 8.68357 22.8339 7.16972C22.8339 5.65587 21.646 4.46792 20.1321 4.46792H19.5434C18.8601 3.06972 17.4303 2.10254 15.7693 2.10254H9.46159C7.80057 2.10254 6.37082 3.06972 5.68749 4.46792H5.09877C3.58492 4.46792 2.39697 5.65587 2.39697 7.16972C2.39697 8.68357 3.03825 9.97665 4.01595 11.0595C4.49954 11.5431 5.10928 11.9741 5.80313 12.2369C6.89646 14.9282 9.52467 16.8205 12.6154 16.8205C15.7062 16.8205 18.3344 14.9282 19.4277 12.2369ZM15.6011 8.88331L14.9493 9.68229C14.8442 9.79793 14.7706 10.0292 14.7811 10.1869L14.8442 11.2172C14.8862 11.8479 14.4342 12.1738 13.8454 11.9425L12.8888 11.5641C12.7416 11.5115 12.4893 11.5115 12.3421 11.5641L11.3854 11.9425C10.7967 12.1738 10.3447 11.8479 10.3867 11.2172L10.4498 10.1869C10.4603 10.0292 10.3867 9.79793 10.2816 9.68229L9.6298 8.88331C9.2198 8.39972 9.39852 7.86357 10.0083 7.70587L11.007 7.45357C11.1647 7.41152 11.3539 7.26434 11.438 7.12767L11.9952 6.26562C12.3421 5.72946 12.8888 5.72946 13.2357 6.26562L13.7929 7.12767C13.877 7.26434 14.0662 7.41152 14.2239 7.45357L15.2226 7.70587C15.8324 7.86357 16.0111 8.39972 15.6011 8.88331Z" fill="#A67509"/>
</svg>
