<svg width="21" height="21" viewBox="0 0 21 21" fill="none" xmlns="http://www.w3.org/2000/svg">
<path d="M3.25562 8.58247C1.78464 7.11151 1.78464 4.72659 3.25562 3.25562C4.72659 1.78464 7.11151 1.78464 8.58247 3.25562L16.9533 11.6264C18.4242 13.0974 18.4242 15.4824 16.9533 16.9533C15.4824 18.4242 13.0974 18.4242 11.6264 16.9533L7.25077 12.5776C6.72542 12.0523 6.72542 11.2005 7.25077 10.6752C7.77611 10.1498 8.62788 10.1498 9.15317 10.6752L13.1484 14.6704C13.5687 15.0906 14.25 15.0906 14.6704 14.6704C15.0906 14.25 15.0906 13.5687 14.6704 13.1484L10.6752 9.15317C9.30933 7.78732 7.09471 7.78732 5.7288 9.15317C4.3629 10.5191 4.3629 12.7337 5.7288 14.0996L10.1044 18.4752C12.416 20.7868 16.1637 20.7868 18.4752 18.4752C20.7868 16.1637 20.7868 12.416 18.4752 10.1044L10.1044 1.73365C7.79291 -0.577882 4.04519 -0.577882 1.73365 1.73365C-0.577882 4.04519 -0.577882 7.79291 1.73365 10.1044L2.1141 10.4849C2.53438 10.9052 3.21582 10.9052 3.6361 10.485C4.05638 10.0647 4.05638 9.38326 3.6361 8.96301L3.25562 8.58247Z" fill="#0A5FAE"/>
</svg>
