<svg width="25" height="22" viewBox="0 0 25 22" fill="none" xmlns="http://www.w3.org/2000/svg">
<path fill-rule="evenodd" clip-rule="evenodd" d="M21.875 0V2.34375L3.125 7.8125V6.25H0V15.625H3.125V14.0625L6.42586 15.0253C6.31109 15.4664 6.25 15.9292 6.25 16.4062C6.25 19.4266 8.69844 21.875 11.7188 21.875C14.1526 21.875 16.2151 20.2851 16.9243 18.0873L21.875 19.5312V21.875H25V0H21.875ZM9.42953 15.9013L13.9206 17.2112C13.5923 18.1091 12.7303 18.75 11.7188 18.75C10.4243 18.75 9.375 17.7007 9.375 16.4062C9.375 16.2329 9.39382 16.0639 9.42953 15.9013Z" fill="#0A5FAE"/>
</svg>
