<svg width="36" height="35" viewBox="0 0 36 35" fill="none" xmlns="http://www.w3.org/2000/svg">
<path d="M13.6205 2.60342C13.8008 -0.665952 17.828 -1.06396 18.8799 2.60342C19.7214 5.53733 18.3682 10.2509 17.5067 13.6166C18.3682 15.5956 21.1826 19.263 22.8599 20.8834C28.4605 20.0306 31.6162 20.1257 33.6915 21.1109C36.506 22.4471 35.909 25.7344 33.1798 26.0007C30.8486 26.2281 27.4086 26.0006 22.5188 21.9353C21.2489 22.1059 17.464 22.8393 12.9382 24.4086C11.204 27.1947 8.78743 31.0052 6.74052 32.6532C3.38588 35.3539 0.855694 34.4726 0.144963 32.9943C-0.821619 30.3788 3.10159 27.9338 10.2373 24.4086C11.365 22.1722 13.9673 16.5792 15.3546 12.0988C14.7481 10.6489 13.393 6.72563 13.6205 2.60342ZM9.27078 25.9438C-0.452053 30.1394 0.00286059 32.9659 1.82234 33.2502C3.64181 33.5345 5.88771 31.2316 9.27078 25.9438ZM33.0661 23.4421C32.9524 20.7697 28.8586 20.7697 23.5139 21.6794C29.7399 26.1144 33.0661 25.3184 33.0661 23.4421ZM17.032 14.6858C15.5309 19.1208 14.0753 22.2386 13.5352 23.2431C17.5835 21.9922 20.7941 21.3194 21.8934 21.1393C19.6418 18.592 17.7143 15.7756 17.032 14.6858ZM15.8663 10.6773C18.2259 3.14355 17.43 0.7555 15.639 1.01133C13.7627 1.32405 14.0185 6.66873 15.8663 10.6773Z" fill="#FF2116"/>
</svg>
