<svg width="165" height="127" viewBox="0 0 165 127" fill="none" xmlns="http://www.w3.org/2000/svg">
<path d="M142.5 77.5586C153.061 85.4556 162.5 105.338 162.5 117.589C162.5 121.406 159.718 124.5 156.285 124.5H152.5M112.5 45.1897C119.332 41.2345 123.929 33.842 123.929 25.375C123.929 16.908 119.332 9.51546 112.5 5.56027M8.71475 124.5H118.19C121.622 124.5 124.405 121.406 124.405 117.589C124.405 93.5989 104.378 74.1508 63.4524 74.1508C22.5272 74.1508 2.5 93.5989 2.5 117.589C2.5 121.406 5.28244 124.5 8.71475 124.5ZM86.3095 25.375C86.3095 38.0085 76.076 48.25 63.4524 48.25C50.8287 48.25 40.5952 38.0085 40.5952 25.375C40.5952 12.7415 50.8287 2.5 63.4524 2.5C76.076 2.5 86.3095 12.7415 86.3095 25.375Z" stroke="white" stroke-width="5" stroke-linecap="round"/>
</svg>
