<svg width="39" height="37" viewBox="0 0 39 37" fill="none" xmlns="http://www.w3.org/2000/svg">
<path d="M19.5 25.8229C18.85 25.8229 18.2 25.7766 17.5825 25.6687C14.1375 25.1908 11.0013 23.31 9.01875 20.5196C7.6375 18.5462 6.90625 16.2491 6.90625 13.875C6.90625 7.29206 12.5613 1.92706 19.5 1.92706C26.4387 1.92706 32.0938 7.29206 32.0938 13.875C32.0938 16.2491 31.3625 18.5462 29.9813 20.5196C27.9825 23.3254 24.8462 25.1908 21.3687 25.6842C20.8 25.7767 20.15 25.8229 19.5 25.8229ZM19.5 4.23956C13.8937 4.23956 9.34375 8.55623 9.34375 13.875C9.34375 15.8021 9.92875 17.6521 11.0337 19.2246C12.6425 21.4754 15.1613 22.9862 17.9563 23.3717C18.9963 23.5412 20.02 23.5412 20.9787 23.3717C23.8225 22.9862 26.3413 21.46 27.95 19.2091C29.055 17.6366 29.64 15.7866 29.64 13.8595C29.6562 8.55621 25.1063 4.23956 19.5 4.23956Z" fill="#0A5FAE"/>
<path d="M10.5135 34.8262C10.286 34.8262 10.0747 34.7954 9.8472 34.7492C8.79095 34.5179 7.97845 33.747 7.7347 32.745L7.16595 30.4787C7.13345 30.34 7.0197 30.232 6.8572 30.1858L4.17595 29.5846C3.16845 29.3533 2.3722 28.6441 2.09595 27.7037C1.8197 26.7633 2.09595 25.7458 2.8272 25.0521L9.1647 19.0396C9.4247 18.7929 9.7822 18.6696 10.1397 18.7004C10.4972 18.7312 10.8222 18.9162 11.0335 19.2091C12.6422 21.46 15.161 22.9862 17.9722 23.3716C19.0122 23.5412 20.036 23.5412 20.9947 23.3716C23.8385 22.9862 26.3572 21.46 27.966 19.2091C28.161 18.9162 28.5022 18.7312 28.8597 18.7004C29.2172 18.6696 29.5747 18.7929 29.8347 19.0396L36.1722 25.0521C36.9035 25.7458 37.1797 26.7633 36.9035 27.7037C36.6272 28.6441 35.8147 29.3687 34.8235 29.5846L32.1422 30.1858C31.996 30.2166 31.8822 30.3245 31.8335 30.4787L31.2647 32.745C31.021 33.747 30.2085 34.5179 29.1522 34.7492C28.096 34.9958 27.0072 34.6412 26.3247 33.855L19.4997 26.4087L12.6747 33.8704C12.1222 34.4871 11.3422 34.8262 10.5135 34.8262ZM9.89595 21.6296L4.5497 26.7017C4.40345 26.8404 4.4197 26.9946 4.4522 27.0871C4.46845 27.1642 4.5497 27.3183 4.7447 27.3491L7.42595 27.9504C8.4822 28.1816 9.2947 28.9525 9.53845 29.9545L10.1072 32.2208C10.156 32.4212 10.3185 32.4829 10.416 32.5137C10.5135 32.5291 10.676 32.5446 10.8222 32.3904L17.046 25.5916C14.2835 25.0829 11.7485 23.68 9.89595 21.6296ZM21.9535 25.5762L28.1772 32.3595C28.3235 32.5291 28.5022 32.5291 28.5997 32.4983C28.6972 32.4829 28.8435 32.4058 28.9085 32.2054L29.4772 29.9392C29.721 28.9371 30.5335 28.1662 31.5897 27.935L34.271 27.3337C34.466 27.2875 34.5472 27.1487 34.5635 27.0716C34.596 26.9946 34.6122 26.825 34.466 26.6862L29.1197 21.6141C27.251 23.6645 24.7322 25.0675 21.9535 25.5762Z" fill="#0A5FAE"/>
<path d="M22.5715 19.8721C22.149 19.8721 21.6452 19.7642 21.044 19.425L19.5002 18.5463L17.9565 19.4096C16.5427 20.2113 15.6165 19.7488 15.2752 19.5175C14.934 19.2863 14.2027 18.5925 14.5765 17.0663L14.9665 15.4784L13.6665 14.3375C12.9515 13.6592 12.6915 12.8421 12.9352 12.1021C13.179 11.3621 13.894 10.8379 14.9015 10.6837L16.6402 10.4063L17.469 8.6796C17.9402 7.80085 18.6715 7.3075 19.5002 7.3075C20.329 7.3075 21.0765 7.81628 21.5315 8.69503L22.4902 10.5142L24.099 10.6992C25.0902 10.8533 25.8052 11.3775 26.0652 12.1175C26.309 12.8575 26.049 13.6746 25.334 14.3529L23.9852 15.6325L24.4077 17.0663C24.7815 18.5925 24.0502 19.2863 23.709 19.5175C23.5302 19.6563 23.1402 19.8721 22.5715 19.8721ZM15.6165 12.9346L16.7377 13.9983C17.2577 14.4917 17.5177 15.3242 17.3552 16.0025L17.0465 17.2358L18.3465 16.5112C19.0452 16.1258 19.9877 16.1258 20.6702 16.5112L21.9702 17.2358L21.6777 16.0025C21.5152 15.3088 21.759 14.4917 22.279 13.9983L23.4002 12.9346L21.9865 12.7033C21.304 12.5954 20.6215 12.1175 20.3127 11.5317L19.5002 10.0208L18.6877 11.5625C18.3952 12.1329 17.7127 12.6263 17.0302 12.7342L15.6165 12.9346Z" fill="#0A5FAE"/>
</svg>
