<svg width="18" height="18" viewBox="0 0 18 18" fill="none" xmlns="http://www.w3.org/2000/svg">
<path d="M8.73368 12.1912C8.44255 12.1912 8.15143 12.1694 7.87486 12.1184C6.3319 11.8928 4.92722 11.0049 4.03929 9.68756C3.42065 8.75596 3.09314 7.67152 3.09314 6.55069C3.09314 3.44294 5.62592 0.910156 8.73368 0.910156C11.8414 0.910156 14.3742 3.44294 14.3742 6.55069C14.3742 7.67152 14.0467 8.75596 13.4281 9.68756C12.5328 11.0122 11.1282 11.8928 9.57066 12.1257C9.31592 12.1694 9.0248 12.1912 8.73368 12.1912ZM8.73368 2.00187C6.22273 2.00187 4.18486 4.03974 4.18486 6.55069C4.18486 7.46046 4.44687 8.33383 4.94178 9.0762C5.66231 10.1388 6.79042 10.8521 8.04225 11.034C8.50805 11.1141 8.96657 11.1141 9.39598 11.034C10.6697 10.8521 11.7978 10.1315 12.5183 9.06891C13.0132 8.32654 13.2752 7.45317 13.2752 6.54341C13.2825 4.03974 11.2446 2.00187 8.73368 2.00187Z" fill="#292D32"/>
<path d="M4.70877 16.4413C4.60687 16.4413 4.51226 16.4267 4.41036 16.4049C3.93729 16.2957 3.57338 15.9318 3.46421 15.4587L3.20948 14.3888C3.19492 14.3233 3.14397 14.2724 3.07119 14.2505L1.8703 13.9667C1.41906 13.8575 1.06243 13.5227 0.938705 13.0788C0.814978 12.6348 0.938706 12.1545 1.26622 11.8269L4.10468 8.98849C4.22113 8.87204 4.38125 8.81381 4.54137 8.82837C4.70149 8.84293 4.84705 8.93025 4.94167 9.06854C5.6622 10.1311 6.79031 10.8517 8.04942 11.0336C8.51522 11.1137 8.97374 11.1137 9.40315 11.0336C10.6768 10.8517 11.8049 10.1311 12.5255 9.06854C12.6128 8.93025 12.7656 8.84293 12.9258 8.82837C13.0859 8.81381 13.246 8.87204 13.3624 8.98849L16.2009 11.8269C16.5284 12.1545 16.6521 12.6348 16.5284 13.0788C16.4047 13.5227 16.0408 13.8648 15.5968 13.9667L14.3959 14.2505C14.3304 14.2651 14.2795 14.3161 14.2576 14.3888L14.0029 15.4587C13.8937 15.9318 13.5298 16.2957 13.0568 16.4049C12.5837 16.5213 12.096 16.3539 11.7904 15.9827L8.73356 12.4674L5.67676 15.99C5.4293 16.2812 5.07995 16.4413 4.70877 16.4413ZM4.4322 10.2112L2.0377 12.6057C1.9722 12.6712 1.97948 12.744 1.99403 12.7877C2.00131 12.8241 2.0377 12.8968 2.12504 12.9114L3.32593 13.1952C3.799 13.3044 4.16291 13.6683 4.27208 14.1414L4.52681 15.2113C4.54865 15.3059 4.62143 15.335 4.6651 15.3496C4.70877 15.3568 4.78155 15.3641 4.84705 15.2913L7.63457 12.0817C6.39729 11.8415 5.2619 11.1792 4.4322 10.2112ZM9.83256 12.0744L12.6201 15.2768C12.6856 15.3568 12.7656 15.3568 12.8093 15.3423C12.853 15.335 12.9185 15.2986 12.9476 15.204L13.2023 14.1341C13.3115 13.661 13.6754 13.2971 14.1485 13.188L15.3494 12.9041C15.4367 12.8823 15.4731 12.8168 15.4804 12.7804C15.4949 12.744 15.5022 12.6639 15.4367 12.5984L13.0422 10.2039C12.2052 11.1719 11.0771 11.8342 9.83256 12.0744Z" fill="#292D32"/>
<path d="M10.1094 9.38187C9.92016 9.38187 9.69454 9.33092 9.42525 9.1708L8.73383 8.75594L8.04241 9.16352C7.40921 9.54198 6.99436 9.32364 6.84152 9.21447C6.68868 9.1053 6.36117 8.77778 6.52856 8.05725L6.70324 7.30761L6.12099 6.76901C5.80075 6.44877 5.6843 6.06305 5.79347 5.7137C5.90265 5.36435 6.22288 5.11688 6.67412 5.0441L7.45288 4.9131L7.82407 4.09796C8.03513 3.68311 8.36265 3.4502 8.73383 3.4502C9.10501 3.4502 9.43981 3.69039 9.64359 4.10524L10.073 4.96405L10.7935 5.05139C11.2375 5.12417 11.5577 5.37161 11.6742 5.72096C11.7834 6.07031 11.6669 6.45606 11.3467 6.7763L10.7426 7.38039L10.9318 8.05725C11.0992 8.77778 10.7717 9.1053 10.6189 9.21447C10.5388 9.27997 10.3641 9.38187 10.1094 9.38187ZM6.99436 6.10672L7.49655 6.60889C7.72945 6.84179 7.8459 7.23482 7.77312 7.55506L7.63484 8.1373L8.21708 7.79523C8.53004 7.61328 8.95217 7.61328 9.25785 7.79523L9.8401 8.1373L9.7091 7.55506C9.63632 7.22754 9.74549 6.84179 9.97839 6.60889L10.4806 6.10672L9.84738 5.99753C9.5417 5.94659 9.23602 5.72098 9.09774 5.44441L8.73383 4.73115L8.36992 5.45896C8.23892 5.72825 7.93324 5.96116 7.62756 6.0121L6.99436 6.10672Z" fill="#292D32"/>
</svg>
