<svg width="40" height="40" viewBox="0 0 40 40" fill="none" xmlns="http://www.w3.org/2000/svg">
<path d="M26.6667 37.9166H13.3334C8.30002 37.9166 5.41669 35.0333 5.41669 30V13.75C5.41669 8.49998 8.08335 5.83331 13.3334 5.83331C14.0167 5.83331 14.5834 6.39998 14.5834 7.08331C14.5834 7.74998 14.85 8.38331 15.3167 8.84998C15.7834 9.31664 16.4167 9.58331 17.0834 9.58331H22.9167C24.3 9.58331 25.4167 8.46665 25.4167 7.08331C25.4167 6.39998 25.9834 5.83331 26.6667 5.83331C31.9167 5.83331 34.5834 8.49998 34.5834 13.75V30C34.5834 35.0333 31.7 37.9166 26.6667 37.9166ZM12.25 8.36665C9.61665 8.58332 7.91669 9.76665 7.91669 13.75V30C7.91669 33.7 9.63335 35.4166 13.3334 35.4166H26.6667C30.3667 35.4166 32.0834 33.7 32.0834 30V13.75C32.0834 9.76665 30.3834 8.59999 27.7501 8.36665C27.1834 10.5 25.2334 12.0833 22.9167 12.0833H17.0834C15.75 12.0833 14.5 11.5666 13.55 10.6166C12.9167 9.98331 12.4833 9.21665 12.25 8.36665Z" fill="#0A5FAE"/>
<path d="M22.9166 12.0833H17.0833C15.75 12.0833 14.5 11.5666 13.55 10.6166C12.6 9.66664 12.0833 8.41665 12.0833 7.08331C12.0833 4.33331 14.3333 2.08331 17.0833 2.08331H22.9166C24.25 2.08331 25.5 2.59999 26.45 3.54999C27.4 4.49999 27.9166 5.74998 27.9166 7.08331C27.9166 9.83331 25.6666 12.0833 22.9166 12.0833ZM17.0833 4.58331C15.7 4.58331 14.5833 5.69998 14.5833 7.08331C14.5833 7.74998 14.85 8.38331 15.3167 8.84998C15.7833 9.31664 16.4166 9.58331 17.0833 9.58331H22.9166C24.3 9.58331 25.4166 8.46665 25.4166 7.08331C25.4166 6.41665 25.15 5.78332 24.6833 5.31665C24.2166 4.84998 23.5833 4.58331 22.9166 4.58331H17.0833Z" fill="#0A5FAE"/>
<path d="M20 22.9167H13.3333C12.65 22.9167 12.0833 22.35 12.0833 21.6667C12.0833 20.9834 12.65 20.4167 13.3333 20.4167H20C20.6833 20.4167 21.25 20.9834 21.25 21.6667C21.25 22.35 20.6833 22.9167 20 22.9167Z" fill="#0A5FAE"/>
<path d="M26.6666 29.5833H13.3333C12.65 29.5833 12.0833 29.0166 12.0833 28.3333C12.0833 27.65 12.65 27.0833 13.3333 27.0833H26.6666C27.35 27.0833 27.9166 27.65 27.9166 28.3333C27.9166 29.0166 27.35 29.5833 26.6666 29.5833Z" fill="#0A5FAE"/>
</svg>
