<svg width="29" height="21" viewBox="0 0 29 21" fill="none" xmlns="http://www.w3.org/2000/svg">
<path d="M22.0133 0.19279C22.0975 0.131678 22.1975 0.0831927 22.3076 0.0501107C22.4177 0.0170287 22.5357 0 22.6549 0C22.7741 0 22.8921 0.0170287 23.0022 0.0501107C23.1123 0.0831927 23.2123 0.131678 23.2965 0.19279L28.7338 4.13012C28.8182 4.19107 28.8851 4.26349 28.9308 4.34321C28.9765 4.42294 29 4.50841 29 4.59472C29 4.68104 28.9765 4.76651 28.9308 4.84623C28.8851 4.92595 28.8182 4.99837 28.7338 5.05933L10.6096 18.1838C10.5226 18.2463 10.419 18.2954 10.3051 18.3281L1.24297 20.953C1.07829 21.0007 0.897877 21.0124 0.724108 20.9866C0.55034 20.9608 0.390854 20.8986 0.265423 20.8078C0.139992 20.717 0.0541312 20.6015 0.0184855 20.4756C-0.0171602 20.3498 -0.00102328 20.2192 0.0648957 20.0999L3.68974 13.5377C3.73492 13.4552 3.80274 13.3802 3.8891 13.3172L22.0133 0.19279ZM20.3114 3.28228L24.4673 6.29171L26.8108 4.59472L22.6549 1.58529L20.3114 3.28228ZM23.1859 7.21961L19.0301 4.21018L7.24933 12.7411V13.1256H8.15554C8.39588 13.1256 8.62638 13.1947 8.79633 13.3178C8.96628 13.4409 9.06175 13.6078 9.06175 13.7818V14.438H9.96796C10.2083 14.438 10.4388 14.5072 10.6087 14.6302C10.7787 14.7533 10.8742 14.9202 10.8742 15.0943V15.7505H11.4052L23.1859 7.21961ZM5.49491 14.0115L5.30279 14.1506L2.53341 19.1655L9.45867 17.16L9.65079 17.0209C9.47792 16.9742 9.32889 16.8903 9.22363 16.7805C9.11837 16.6708 9.06189 16.5403 9.06175 16.4067V15.7505H8.15554C7.9152 15.7505 7.6847 15.6813 7.51475 15.5583C7.34481 15.4352 7.24933 15.2683 7.24933 15.0943V14.438H6.34312C6.15858 14.4379 5.97848 14.397 5.8269 14.3208C5.67533 14.2446 5.5595 14.1367 5.49491 14.0115Z" fill="#0A5FAE"/>
</svg>
