<svg width="30" height="30" viewBox="0 0 30 30" fill="none" xmlns="http://www.w3.org/2000/svg">
<path d="M18.1953 2.72929C18.1953 4.23664 16.9733 5.45858 15.466 5.45858C13.9586 5.45858 12.7367 4.23664 12.7367 2.72929C12.7367 1.22195 13.9586 0 15.466 0C16.9733 0 18.1953 1.22195 18.1953 2.72929Z" fill="#FCC145"/>
<path d="M5.15154 9.91744C5.5979 8.35519 7.02581 7.27811 8.65058 7.27811H14.076L19.1879 9.83408L22.9781 8.31801L24.3296 11.6968L20.5394 13.2129C19.5743 13.5989 18.4902 13.5538 17.5605 13.089L17.2875 12.9525L16.3146 16.8445L17.9012 17.7511C19.3168 18.56 20.0216 20.2117 19.6262 21.7933L17.7964 29.1124H14.0453L16.0958 20.9107L13.0096 19.1472L10.5183 29.1124H6.76722L11.316 10.9172H8.65058L7.61085 14.5562H3.82617L5.15154 9.91744Z" fill="#FCC145"/>
</svg>
