<svg width="61" height="61" viewBox="0 0 61 61" fill="none" xmlns="http://www.w3.org/2000/svg">
<path d="M55.9167 30.5007C55.9167 16.4961 44.5046 5.08398 30.5 5.08398C16.4955 5.08398 5.08337 16.4961 5.08337 30.5007C5.08337 37.8715 8.26046 44.5052 13.293 49.1565C13.293 49.1819 13.293 49.1819 13.2675 49.2073C13.5217 49.4615 13.8267 49.6648 14.0809 49.8936C14.2334 50.0206 14.3605 50.1477 14.513 50.2494C14.9705 50.6307 15.4788 50.9865 15.9617 51.3423C16.1396 51.4694 16.2921 51.5711 16.47 51.6982C16.953 52.0286 17.4613 52.3336 17.995 52.6132C18.173 52.7148 18.3763 52.8419 18.5542 52.9436C19.0625 53.2232 19.5963 53.4773 20.1555 53.7061C20.3588 53.8077 20.5621 53.9094 20.7655 53.9857C21.3246 54.2144 21.8838 54.4177 22.443 54.5956C22.6463 54.6719 22.8496 54.7481 23.053 54.799C23.663 54.9769 24.273 55.1294 24.883 55.2819C25.0609 55.3327 25.2388 55.3836 25.4421 55.409C26.1538 55.5615 26.8655 55.6632 27.6025 55.7394C27.7042 55.7394 27.8059 55.7648 27.9075 55.7902C28.7717 55.8665 29.6359 55.9173 30.5 55.9173C31.3642 55.9173 32.2284 55.8665 33.0671 55.7902C33.1688 55.7902 33.2705 55.7648 33.3721 55.7394C34.1092 55.6632 34.8209 55.5615 35.5325 55.409C35.7105 55.3836 35.8884 55.3073 36.0917 55.2819C36.7017 55.1294 37.3371 55.0023 37.9217 54.799C38.125 54.7227 38.3284 54.6465 38.5317 54.5956C39.0909 54.3923 39.6755 54.2144 40.2092 53.9857C40.4125 53.9094 40.6159 53.8077 40.8192 53.7061C41.353 53.4773 41.8867 53.2232 42.4205 52.9436C42.6238 52.8419 42.8017 52.7148 42.9796 52.6132C43.488 52.3082 43.9963 52.0286 44.5046 51.6982C44.6825 51.5965 44.835 51.4694 45.013 51.3423C45.5213 50.9865 46.0042 50.6307 46.4617 50.2494C46.6142 50.1223 46.7413 49.9952 46.8938 49.8936C47.1734 49.6648 47.453 49.4361 47.7071 49.2073C47.7071 49.1819 47.7071 49.1819 47.6817 49.1565C52.7396 44.5052 55.9167 37.8715 55.9167 30.5007ZM43.0559 43.1327C36.168 38.5069 24.883 38.5069 17.9442 43.1327C16.8259 43.8698 15.9109 44.734 15.1484 45.6744C11.285 41.7602 8.89587 36.3973 8.89587 30.5007C8.89587 18.5802 18.5796 8.89648 30.5 8.89648C42.4205 8.89648 52.1042 18.5802 52.1042 30.5007C52.1042 36.3973 49.715 41.7602 45.8517 45.6744C45.1146 44.734 44.1742 43.8698 43.0559 43.1327Z" fill="#78A4CC"/>
<path d="M30.5 17.6133C25.2388 17.6133 20.9688 21.8833 20.9688 27.1445C20.9688 32.3041 25.01 36.4979 30.3729 36.6504C30.4492 36.6504 30.5508 36.6504 30.6017 36.6504C30.6525 36.6504 30.7287 36.6504 30.7796 36.6504C30.805 36.6504 30.8304 36.6504 30.8304 36.6504C35.9646 36.4724 40.0058 32.3041 40.0312 27.1445C40.0312 21.8833 35.7613 17.6133 30.5 17.6133Z" fill="#78A4CC"/>
</svg>
