<svg width="61" height="61" viewBox="0 0 61 61" fill="none" xmlns="http://www.w3.org/2000/svg">
<path d="M55.9166 30.5006C55.9166 16.4961 44.5045 5.08398 30.4999 5.08398C16.4953 5.08398 5.08325 16.4961 5.08325 30.5006C5.08325 37.8715 8.26034 44.5052 13.2928 49.1565C13.2928 49.1819 13.2928 49.1819 13.2674 49.2073C13.5216 49.4615 13.8266 49.6648 14.0808 49.8936C14.2333 50.0206 14.3603 50.1477 14.5128 50.2494C14.9703 50.6306 15.4787 50.9865 15.9616 51.3423C16.1395 51.4694 16.292 51.5711 16.4699 51.6981C16.9528 52.0286 17.4612 52.3336 17.9949 52.6132C18.1728 52.7148 18.3762 52.8419 18.5541 52.9436C19.0624 53.2231 19.5962 53.4773 20.1553 53.7061C20.3587 53.8077 20.562 53.9094 20.7653 53.9856C21.3245 54.2144 21.8837 54.4177 22.4428 54.5956C22.6462 54.6719 22.8495 54.7481 23.0528 54.799C23.6628 54.9769 24.2728 55.1294 24.8828 55.2819C25.0608 55.3327 25.2387 55.3836 25.442 55.409C26.1537 55.5615 26.8653 55.6631 27.6024 55.7394C27.7041 55.7394 27.8057 55.7648 27.9074 55.7902C28.7716 55.8665 29.6358 55.9173 30.4999 55.9173C31.3641 55.9173 32.2283 55.8665 33.067 55.7902C33.1687 55.7902 33.2703 55.7648 33.372 55.7394C34.1091 55.6631 34.8207 55.5615 35.5324 55.409C35.7103 55.3836 35.8882 55.3073 36.0916 55.2819C36.7016 55.1294 37.337 55.0023 37.9216 54.799C38.1249 54.7227 38.3282 54.6465 38.5316 54.5956C39.0907 54.3923 39.6753 54.2144 40.2091 53.9856C40.4124 53.9094 40.6157 53.8077 40.8191 53.7061C41.3528 53.4773 41.8866 53.2231 42.4203 52.9436C42.6237 52.8419 42.8016 52.7148 42.9795 52.6132C43.4878 52.3082 43.9962 52.0286 44.5045 51.6981C44.6824 51.5965 44.8349 51.4694 45.0128 51.3423C45.5212 50.9865 46.0041 50.6306 46.4616 50.2494C46.6141 50.1223 46.7412 49.9952 46.8937 49.8936C47.1733 49.6648 47.4528 49.4361 47.707 49.2073C47.707 49.1819 47.707 49.1819 47.6816 49.1565C52.7395 44.5052 55.9166 37.8715 55.9166 30.5006ZM43.0558 43.1327C36.1678 38.5069 24.8828 38.5069 17.9441 43.1327C16.8258 43.8698 15.9108 44.734 15.1483 45.6744C11.2849 41.7602 8.89575 36.3973 8.89575 30.5006C8.89575 18.5802 18.5795 8.89648 30.4999 8.89648C42.4203 8.89648 52.1041 18.5802 52.1041 30.5006C52.1041 36.3973 49.7149 41.7602 45.8516 45.6744C45.1145 44.734 44.1741 43.8698 43.0558 43.1327Z" fill="#78A4CC"/>
<path d="M30.5 17.6133C25.2388 17.6133 20.9688 21.8833 20.9688 27.1445C20.9688 32.3041 25.01 36.4979 30.3729 36.6504C30.4492 36.6504 30.5508 36.6504 30.6017 36.6504C30.6525 36.6504 30.7287 36.6504 30.7796 36.6504C30.805 36.6504 30.8304 36.6504 30.8304 36.6504C35.9646 36.4724 40.0058 32.3041 40.0313 27.1445C40.0313 21.8833 35.7613 17.6133 30.5 17.6133Z" fill="#78A4CC"/>
</svg>
