<svg width="26" height="24" viewBox="0 0 26 24" fill="none" xmlns="http://www.w3.org/2000/svg">
<path d="M7.72428 19.0601H16.391C19.8251 19.0601 22.6201 16.4801 22.6201 13.3101C22.6201 10.1401 19.8251 7.56006 16.391 7.56006H4.47428C4.03012 7.56006 3.66178 7.90006 3.66178 8.31006C3.66178 8.72006 4.03012 9.06006 4.47428 9.06006H16.391C18.926 9.06006 20.9951 10.9701 20.9951 13.3101C20.9951 15.6501 18.926 17.5601 16.391 17.5601H7.72428C7.28012 17.5601 6.91178 17.9001 6.91178 18.3101C6.91178 18.7201 7.26928 19.0601 7.72428 19.0601Z" fill="#292D32"/>
<path d="M6.96584 11.5599C7.17168 11.5599 7.37751 11.4899 7.54001 11.3399C7.85418 11.0499 7.85418 10.5699 7.54001 10.2799L5.34084 8.24988L7.54001 6.21988C7.85418 5.92988 7.85418 5.44988 7.54001 5.15988C7.22584 4.86988 6.70584 4.86988 6.39168 5.15988L3.61834 7.71988C3.30418 8.00988 3.30418 8.48988 3.61834 8.77988L6.39168 11.3399C6.55418 11.4899 6.76001 11.5599 6.96584 11.5599Z" fill="#292D32"/>
</svg>
