<svg width="17" height="18" viewBox="0 0 17 18" fill="none" xmlns="http://www.w3.org/2000/svg">
<path fill-rule="evenodd" clip-rule="evenodd" d="M0 2C0 0.89543 0.89543 0 2 0H12.5858C13.1162 0 13.6249 0.21071 14 0.58579L16.4142 3C16.7893 3.37507 17 3.88378 17 4.41421V16C17 17.1046 16.1046 18 15 18H2C0.89543 18 0 17.1046 0 16V2ZM5 2H2V16H4V11C4 9.8954 4.89543 9 6 9H11C12.1046 9 13 9.8954 13 11V16H15V4.41421L12.5858 2H12V4.5C12 5.32843 11.3284 6 10.5 6H6.5C5.67157 6 5 5.32843 5 4.5V2ZM7 2V4H10V2H7ZM11 16H6V11H11V16Z" fill="#0A5FAE"/>
</svg>
