<svg width="27" height="24" viewBox="0 0 27 24" fill="none" xmlns="http://www.w3.org/2000/svg">
<path fill-rule="evenodd" clip-rule="evenodd" d="M19.98 10.4954C20.4014 15.3126 16.838 19.5593 12.0209 19.9807C7.20372 20.4022 2.957 16.8388 2.53556 12.0216C2.11411 7.20449 5.67753 2.95777 10.4947 2.53633C15.3118 2.11488 19.5585 5.6783 19.98 10.4954ZM19.0241 19.4081C17.2399 21.1106 14.8867 22.2412 12.2389 22.4728C6.04542 23.0147 0.585358 18.4331 0.0434994 12.2397C-0.498359 6.04619 4.08317 0.586128 10.2766 0.0442698C16.4701 -0.497588 21.9302 4.08395 22.472 10.2774C22.7037 12.9252 21.9989 15.439 20.6321 17.4918L25.3631 21.7954C25.8922 22.2394 26.3017 23.2567 25.9939 23.6236C25.4081 24.3216 24.1458 23.8048 23.6167 23.3607L19.0241 19.4081Z" fill="#8F9091"/>
</svg>
