<svg width="70" height="70" viewBox="0 0 70 70" fill="none" xmlns="http://www.w3.org/2000/svg">
<path d="M47.0753 8.63321L20.7378 17.3832C3.03368 23.304 3.03368 32.9582 20.7378 38.8499L28.5545 41.4457L31.1503 49.2624C37.042 66.9665 46.7253 66.9665 52.617 49.2624L61.3962 22.954C65.3045 11.1415 58.8878 4.69571 47.0753 8.63321ZM48.0087 24.3249L36.9253 35.4665C36.4878 35.904 35.9337 36.1082 35.3795 36.1082C34.8253 36.1082 34.2712 35.904 33.8337 35.4665C32.9878 34.6207 32.9878 33.2207 33.8337 32.3749L44.917 21.2332C45.7628 20.3874 47.1628 20.3874 48.0087 21.2332C48.8545 22.079 48.8545 23.479 48.0087 24.3249Z" fill="#0A5FAE"/>
</svg>
