<svg width="37" height="37" viewBox="0 0 37 37" fill="none" xmlns="http://www.w3.org/2000/svg">
<path d="M18.25 32.3178H10.6458C5.09475 32.3178 1.901 29.124 1.901 23.573V12.9272C1.901 7.37612 5.09475 4.18237 10.6458 4.18237H25.8541C31.4052 4.18237 34.5989 7.37612 34.5989 12.9272V17.4897C34.5989 18.1132 34.0818 18.6303 33.4583 18.6303C32.8347 18.6303 32.3177 18.1132 32.3177 17.4897V12.9272C32.3177 8.57758 30.2037 6.46362 25.8541 6.46362H10.6458C6.29621 6.46362 4.18225 8.57758 4.18225 12.9272V23.573C4.18225 27.9226 6.29621 30.0365 10.6458 30.0365H18.25C18.8735 30.0365 19.3906 30.5536 19.3906 31.1772C19.3906 31.8007 18.8735 32.3178 18.25 32.3178Z" fill="#0A5FAE"/>
<path d="M18.2496 19.5732C16.9721 19.5732 15.6794 19.1778 14.6909 18.3717L9.93068 14.5696C9.44402 14.1742 9.35277 13.4594 9.74819 12.9728C10.1436 12.4861 10.8584 12.4101 11.345 12.7903L16.1053 16.5924C17.2611 17.5201 19.223 17.5201 20.3788 16.5924L25.139 12.7903C25.6257 12.3949 26.3405 12.4709 26.7359 12.9728C27.1313 13.4594 27.0553 14.1894 26.5534 14.5696L21.7932 18.3717C20.8198 19.1778 19.5271 19.5732 18.2496 19.5732Z" fill="#0A5FAE"/>
<path d="M24.0596 33.1237C23.4817 33.1237 22.9342 32.9108 22.5388 32.5154C22.0673 32.0439 21.8544 31.3595 21.9609 30.6447L22.2498 28.5916C22.3259 28.0593 22.6453 27.4206 23.0255 27.0404L28.4092 21.6566C29.1392 20.9266 29.854 20.5464 30.6296 20.4704C31.5725 20.3791 32.5154 20.7745 33.3975 21.6566C34.2796 22.5387 34.675 23.4664 34.5838 24.4245C34.5077 25.1849 34.1123 25.9149 33.3975 26.6449L28.0138 32.0287C27.6336 32.4089 26.9948 32.7283 26.4625 32.8043L24.4094 33.0933C24.2877 33.1085 24.1813 33.1237 24.0596 33.1237ZM30.8881 22.7364C30.8729 22.7364 30.8577 22.7364 30.8425 22.7364C30.6296 22.7516 30.3406 22.9493 30.0213 23.2687L24.6375 28.6524C24.5919 28.6981 24.5159 28.8502 24.5159 28.911L24.2421 30.812L26.1432 30.5383C26.204 30.5231 26.356 30.447 26.4017 30.4014L31.7854 25.0177C32.1048 24.6831 32.3025 24.4093 32.3177 24.1964C32.3482 23.8922 32.044 23.5272 31.7854 23.2687C31.5421 23.0253 31.1923 22.7364 30.8881 22.7364Z" fill="#0A5FAE"/>
<path d="M31.816 27.755C31.7095 27.755 31.6031 27.7398 31.5118 27.7094C29.5043 27.1467 27.9074 25.5498 27.3447 23.5423C27.1774 22.934 27.5272 22.3104 28.1356 22.1279C28.7439 21.9606 29.3675 22.3105 29.5347 22.9188C29.8845 24.1659 30.873 25.1544 32.1201 25.5042C32.7285 25.6715 33.0783 26.3103 32.911 26.9186C32.7741 27.4205 32.3179 27.755 31.816 27.755Z" fill="#0A5FAE"/>
</svg>
