<svg width="18" height="18" viewBox="0 0 18 18" fill="none" xmlns="http://www.w3.org/2000/svg">
<path d="M6.89974 15.0585C6.53583 15.0585 6.2811 14.9348 6.12826 14.8184C5.83713 14.6073 5.38589 14.0614 5.66973 12.8387L6.08457 11.0483C6.12096 10.8955 6.04091 10.6189 5.93173 10.5024L4.4834 9.0541C3.7192 8.2899 3.78469 7.62759 3.88659 7.30007C3.98848 6.97256 4.32327 6.39758 5.38588 6.21563L7.24181 5.90995C7.38009 5.88811 7.6057 5.72072 7.66393 5.597L8.69014 3.54456C9.18506 2.55474 9.84008 2.40918 10.1894 2.40918C10.5388 2.40918 11.1938 2.55474 11.6887 3.54456L12.7149 5.597C12.7804 5.72072 12.9988 5.88811 13.1371 5.90995L14.993 6.21563C16.0556 6.3903 16.3904 6.97256 16.4923 7.30007C16.5942 7.62759 16.6597 8.2899 15.8955 9.0541L14.4471 10.5024C14.338 10.6116 14.2579 10.8955 14.2943 11.0483L14.7091 12.8387C14.993 14.0687 14.5417 14.6073 14.2506 14.8184C13.9595 15.0294 13.3117 15.2987 12.22 14.651L10.4806 13.6175C10.335 13.5301 10.0293 13.5301 9.88374 13.6175L8.14429 14.651C7.6421 14.9566 7.21997 15.0585 6.89974 15.0585ZM10.1894 3.5009C10.073 3.5009 9.86192 3.63918 9.66541 4.0322L8.63919 6.08463C8.42085 6.52859 7.90411 6.90706 7.41648 6.98712L5.56057 7.2928C5.14571 7.36558 4.95648 7.51842 4.92009 7.63487C4.8837 7.75132 4.94919 7.98422 5.24759 8.28262L6.69595 9.73096C7.06713 10.1021 7.26364 10.779 7.14719 11.2885L6.73233 13.0789C6.6086 13.5956 6.68865 13.8722 6.76871 13.9377C6.84877 13.9959 7.1399 13.9887 7.59114 13.7121L9.33788 12.6786C9.82552 12.3875 10.5606 12.3875 11.041 12.6786L12.7804 13.7121C13.239 13.9814 13.5301 13.9959 13.6102 13.9377C13.6902 13.8795 13.7703 13.6029 13.6465 13.0789L13.2317 11.2885C13.1152 10.7717 13.3045 10.1021 13.6829 9.73096L15.1313 8.28262C15.4297 7.98422 15.4952 7.74404 15.4588 7.63487C15.4224 7.5257 15.2332 7.36558 14.8183 7.2928L12.9624 6.98712C12.4748 6.90706 11.958 6.52859 11.7397 6.08463L10.7135 4.0322C10.5169 3.63918 10.3059 3.5009 10.1894 3.5009Z" fill="#292D32"/>
<path d="M5.82251 4.18449H1.45565C1.15725 4.18449 0.90979 3.93703 0.90979 3.63863C0.90979 3.34023 1.15725 3.09277 1.45565 3.09277H5.82251C6.12092 3.09277 6.36837 3.34023 6.36837 3.63863C6.36837 3.93703 6.12092 4.18449 5.82251 4.18449Z" fill="#292D32"/>
<path d="M3.63908 14.3739H1.45565C1.15725 14.3739 0.90979 14.1265 0.90979 13.8281C0.90979 13.5297 1.15725 13.2822 1.45565 13.2822H3.63908C3.93748 13.2822 4.18494 13.5297 4.18494 13.8281C4.18494 14.1265 3.93748 14.3739 3.63908 14.3739Z" fill="#292D32"/>
<path d="M2.18346 9.27922H1.45565C1.15725 9.27922 0.90979 9.03176 0.90979 8.73336C0.90979 8.43496 1.15725 8.1875 1.45565 8.1875H2.18346C2.48186 8.1875 2.72932 8.43496 2.72932 8.73336C2.72932 9.03176 2.48186 9.27922 2.18346 9.27922Z" fill="#292D32"/>
</svg>
