<svg width="18" height="18" viewBox="0 0 18 18" fill="none" xmlns="http://www.w3.org/2000/svg">
<path d="M11.9506 5.78562C13.7264 7.56148 13.7264 10.4436 11.9506 12.2194C10.1747 13.9953 7.29257 13.9953 5.51671 12.2194C3.74085 10.4436 3.74085 7.56148 5.51671 5.78562C6.51381 4.78852 7.86755 4.35184 9.17033 4.47557" stroke="#292D32" stroke-width="1.5" stroke-linecap="round" stroke-linejoin="round"/>
<path d="M6.00429 15.7499C4.54867 15.1676 3.27499 14.1123 2.43073 12.6494C1.60103 11.2156 1.32446 9.62171 1.52097 8.10059" stroke="#292D32" stroke-width="1.5" stroke-linecap="round" stroke-linejoin="round"/>
<path d="M4.25757 3.26073C5.49485 2.29274 7.04508 1.71777 8.7336 1.71777C10.3857 1.71777 11.9069 2.27818 13.1296 3.20978" stroke="#292D32" stroke-width="1.5" stroke-linecap="round" stroke-linejoin="round"/>
<path d="M11.4629 15.7499C12.9185 15.1676 14.1922 14.1123 15.0364 12.6494C15.8661 11.2156 16.1427 9.62171 15.9462 8.10059" stroke="#292D32" stroke-width="1.5" stroke-linecap="round" stroke-linejoin="round"/>
</svg>
