<svg width="35" height="34" viewBox="0 0 35 34" fill="none" xmlns="http://www.w3.org/2000/svg">
<g clip-path="url(#clip0_231_2586)">
<path d="M11.6875 32.9531H3.1875C2.62391 32.9531 2.08341 32.7292 1.6849 32.3307C1.28638 31.9322 1.0625 31.3916 1.0625 30.8281L1.0625 3.20306C1.0625 2.63948 1.28638 2.09898 1.6849 1.70046C2.08341 1.30195 2.62391 1.07806 3.1875 1.07806L18.2452 1.07806C18.8084 1.07818 19.3486 1.30187 19.7469 1.69998L28.0656 10.0186C28.4637 10.417 28.6874 10.9571 28.6875 11.5203V11.7031" stroke="#0A5FAE" stroke-width="1.5" stroke-linecap="round" stroke-linejoin="round"/>
<path d="M18.0625 1.07806V9.57806C18.0625 10.1416 18.2864 10.6822 18.6849 11.0807C19.0834 11.4792 19.6239 11.7031 20.1875 11.7031H28.6875" stroke="#0A5FAE" stroke-width="1.5" stroke-linecap="round" stroke-linejoin="round"/>
<path d="M11.5727 13.6269L8.55242 17.6531C8.46104 17.7747 8.3446 17.8754 8.21097 17.9481C8.07734 18.0209 7.92963 18.0641 7.77785 18.0749C7.62607 18.0856 7.47375 18.0636 7.3312 18.0104C7.18865 17.9572 7.05919 17.874 6.95158 17.7664L5.3125 16.1287" stroke="#0A5FAE" stroke-width="1.5" stroke-linecap="round" stroke-linejoin="round"/>
<path d="M11.5727 23.1894L8.55242 27.2156C8.46104 27.3372 8.3446 27.4379 8.21097 27.5106C8.07734 27.5834 7.92963 27.6266 7.77785 27.6374C7.62607 27.6481 7.47375 27.6261 7.3312 27.5729C7.18865 27.5197 7.05919 27.4365 6.95158 27.3289L5.3125 25.6898" stroke="#0A5FAE" stroke-width="1.5" stroke-linecap="round" stroke-linejoin="round"/>
<path d="M15.9375 18.0781H21.25" stroke="#0A5FAE" stroke-width="1.5" stroke-linecap="round" stroke-linejoin="round"/>
<path d="M32.0606 21.08L21.25 31.8906L15.9375 32.9531L17 27.6406L27.8106 16.83C28.3725 16.2681 29.1346 15.9525 29.9292 15.9525C30.7238 15.9525 31.4859 16.2681 32.0478 16.83L32.0606 16.8427C32.6225 17.4046 32.9381 18.1667 32.9381 18.9614C32.9381 19.756 32.6225 20.5181 32.0606 21.08V21.08Z" stroke="#0A5FAE" stroke-width="1.5" stroke-linecap="round" stroke-linejoin="round"/>
</g>
<g clip-path="url(#clip1_231_2586)">
<path d="M12.6875 32.9531H4.1875C3.62391 32.9531 3.08341 32.7292 2.6849 32.3307C2.28638 31.9322 2.0625 31.3916 2.0625 30.8281L2.0625 3.20306C2.0625 2.63948 2.28638 2.09898 2.6849 1.70046C3.08341 1.30195 3.62391 1.07806 4.1875 1.07806L19.2452 1.07806C19.8084 1.07818 20.3486 1.30187 20.7469 1.69998L29.0656 10.0186C29.4637 10.417 29.6874 10.9571 29.6875 11.5203V11.7031" stroke="#0A5FAE" stroke-width="1.5" stroke-linecap="round" stroke-linejoin="round"/>
<path d="M19.0625 1.07806V9.57806C19.0625 10.1416 19.2864 10.6822 19.6849 11.0807C20.0834 11.4792 20.6239 11.7031 21.1875 11.7031H29.6875" stroke="#0A5FAE" stroke-width="1.5" stroke-linecap="round" stroke-linejoin="round"/>
<path d="M12.5727 13.6269L9.55242 17.6531C9.46104 17.7747 9.3446 17.8754 9.21097 17.9481C9.07734 18.0209 8.92963 18.0641 8.77785 18.0749C8.62607 18.0856 8.47375 18.0636 8.3312 18.0104C8.18865 17.9572 8.05919 17.874 7.95158 17.7664L6.3125 16.1287" stroke="#0A5FAE" stroke-width="1.5" stroke-linecap="round" stroke-linejoin="round"/>
<path d="M12.5727 23.1894L9.55242 27.2156C9.46104 27.3372 9.3446 27.4379 9.21097 27.5106C9.07734 27.5834 8.92963 27.6266 8.77785 27.6374C8.62607 27.6481 8.47375 27.6261 8.3312 27.5729C8.18865 27.5197 8.05919 27.4365 7.95158 27.3289L6.3125 25.6898" stroke="#0A5FAE" stroke-width="1.5" stroke-linecap="round" stroke-linejoin="round"/>
<path d="M16.9375 18.0781H22.25" stroke="#0A5FAE" stroke-width="1.5" stroke-linecap="round" stroke-linejoin="round"/>
<path d="M33.0606 21.08L22.25 31.8906L16.9375 32.9531L18 27.6406L28.8106 16.83C29.3725 16.2681 30.1346 15.9525 30.9292 15.9525C31.7238 15.9525 32.4859 16.2681 33.0478 16.83L33.0606 16.8427C33.6225 17.4046 33.9381 18.1667 33.9381 18.9614C33.9381 19.756 33.6225 20.5181 33.0606 21.08V21.08Z" stroke="#0A5FAE" stroke-width="1.5" stroke-linecap="round" stroke-linejoin="round"/>
</g>
<defs>
<clipPath id="clip0_231_2586">
<rect width="34" height="34" fill="white"/>
</clipPath>
<clipPath id="clip1_231_2586">
<rect width="34" height="34" fill="white" transform="translate(1)"/>
</clipPath>
</defs>
</svg>
