<svg width="25" height="20" viewBox="0 0 25 20" fill="none" xmlns="http://www.w3.org/2000/svg">
<path d="M15.6875 16.1583C15.0417 16.5083 14.2292 16.8 13.2396 17.0583L11.5937 17.4917C7.45832 18.5583 5.28124 17.6667 3.93749 14.3583L2.60416 11.0667C1.27082 7.75833 2.37499 6.00833 6.51041 4.94167L8.15624 4.50833C8.58332 4.4 8.98957 4.30833 9.37499 4.25C9.06249 4.75833 8.81249 5.375 8.60416 6.08333L7.58332 9.575C6.56249 13.0583 7.90624 14.775 12.25 15.6L14 15.9333C14.6042 16.05 15.1667 16.125 15.6875 16.1583Z" stroke="#292D32" stroke-width="1.5" stroke-linecap="round" stroke-linejoin="round"/>
<path d="M13.1666 7.1084L18.2187 8.1334" stroke="#292D32" stroke-width="1.5" stroke-linecap="round" stroke-linejoin="round"/>
<path d="M12.1459 10.3333L15.1667 10.9499" stroke="#292D32" stroke-width="1.5" stroke-linecap="round" stroke-linejoin="round"/>
<path d="M21.8333 4.24993C22.9583 5.24993 23.1562 6.68326 22.5625 8.69992L21.5417 12.1833C20.6667 15.1916 18.9375 16.4083 15.6875 16.1583C15.1667 16.1249 14.6042 16.0499 14 15.9333L12.25 15.5999C7.90623 14.7749 6.56248 13.0583 7.58332 9.57493L8.60415 6.08326C8.81248 5.37493 9.06248 4.75826 9.37498 4.24993C10.5937 2.23326 12.6667 1.69159 16.1458 2.34993L17.8854 2.67493" stroke="#292D32" stroke-width="1.5" stroke-linecap="round" stroke-linejoin="round"/>
</svg>
