<svg width="77" height="60" viewBox="0 0 77 60" fill="none" xmlns="http://www.w3.org/2000/svg">
<path d="M38.5978 25.4034C38.5342 25.3221 38.4529 25.2564 38.3602 25.2112C38.2675 25.1661 38.1657 25.1426 38.0625 25.1426C37.9593 25.1426 37.8575 25.1661 37.7648 25.2112C37.6721 25.2564 37.5908 25.3221 37.5272 25.4034L28.0116 37.4423C27.9332 37.5425 27.8845 37.6627 27.8712 37.7893C27.8578 37.9158 27.8804 38.0435 27.9362 38.1579C27.992 38.2722 28.0789 38.3685 28.1869 38.4358C28.2949 38.5031 28.4196 38.5386 28.5469 38.5383H34.8255V59.1329C34.8255 59.5067 35.1313 59.8125 35.5052 59.8125H40.6028C40.9767 59.8125 41.2825 59.5067 41.2825 59.1329V38.5468H47.5781C48.1474 38.5468 48.4617 37.8926 48.1134 37.4508L38.5978 25.4034Z" fill="#0A5FAE"/>
<path d="M63.4998 17.5614C59.6086 7.29815 49.6937 0 38.0795 0C26.4653 0 16.5504 7.28965 12.6592 17.5529C5.37803 19.4646 0 26.1 0 33.9844C0 43.3726 7.604 50.9766 16.9837 50.9766H20.3906C20.7645 50.9766 21.0703 50.6707 21.0703 50.2969V45.1992C21.0703 44.8254 20.7645 44.5195 20.3906 44.5195H16.9837C14.1205 44.5195 11.4272 43.3811 9.42217 41.3165C7.42559 39.2604 6.36357 36.4907 6.45703 33.619C6.5335 31.3761 7.29814 29.269 8.68301 27.4934C10.1019 25.6837 12.0899 24.3668 14.2989 23.7806L17.5189 22.9395L18.6999 19.8299C19.4306 17.8928 20.4501 16.0831 21.733 14.4434C22.9995 12.8181 24.4998 11.3894 26.185 10.2038C29.6769 7.74844 33.789 6.44853 38.0795 6.44853C42.37 6.44853 46.4821 7.74844 49.974 10.2038C51.6647 11.3933 53.1601 12.8206 54.426 14.4434C55.7089 16.0831 56.7284 17.9013 57.4591 19.8299L58.6315 22.931L61.8431 23.7806C66.448 25.021 69.668 29.2096 69.668 33.9844C69.668 36.7966 68.572 39.4474 66.5839 41.4355C65.6089 42.4161 64.4491 43.1937 63.1715 43.7231C61.894 44.2524 60.5242 44.5232 59.1413 44.5195H55.7344C55.3605 44.5195 55.0547 44.8254 55.0547 45.1992V50.2969C55.0547 50.6707 55.3605 50.9766 55.7344 50.9766H59.1413C68.521 50.9766 76.125 43.3726 76.125 33.9844C76.125 26.1085 70.764 19.4815 63.4998 17.5614Z" fill="#0A5FAE"/>
</svg>
