<svg width="28" height="28" viewBox="0 0 28 28" fill="none" xmlns="http://www.w3.org/2000/svg">
<path d="M14.1723 12.5507C14.1518 12.5246 14.1257 12.5034 14.0959 12.4889C14.066 12.4744 14.0332 12.4668 14 12.4668C13.9668 12.4668 13.9341 12.4744 13.9042 12.4889C13.8744 12.5034 13.8482 12.5246 13.8278 12.5507L10.7653 16.4253C10.74 16.4576 10.7244 16.4963 10.7201 16.537C10.7158 16.5777 10.723 16.6188 10.741 16.6556C10.759 16.6924 10.7869 16.7234 10.8217 16.7451C10.8564 16.7667 10.8966 16.7782 10.9375 16.7781H12.9582V23.4062C12.9582 23.5265 13.0567 23.6249 13.177 23.6249H14.8176C14.9379 23.6249 15.0364 23.5265 15.0364 23.4062V16.7808H17.0625C17.2457 16.7808 17.3469 16.5703 17.2348 16.4281L14.1723 12.5507Z" fill="#258950"/>
<path d="M22.1867 10.027C20.9344 6.72383 17.7434 4.375 14.0055 4.375C10.2676 4.375 7.07656 6.72109 5.82422 10.0242C3.48086 10.6395 1.75 12.775 1.75 15.3125C1.75 18.334 4.19727 20.7812 7.21602 20.7812H8.3125C8.43281 20.7812 8.53125 20.6828 8.53125 20.5625V18.9219C8.53125 18.8016 8.43281 18.7031 8.3125 18.7031H7.21602C6.29453 18.7031 5.42773 18.3367 4.78242 17.6723C4.13984 17.0105 3.79805 16.1191 3.82812 15.1949C3.85273 14.473 4.09883 13.7949 4.54453 13.2234C5.00117 12.641 5.64102 12.2172 6.35195 12.0285L7.38828 11.7578L7.76836 10.757C8.00352 10.1336 8.33164 9.55117 8.74453 9.02344C9.15215 8.50037 9.63499 8.04057 10.1773 7.65898C11.3012 6.86875 12.6246 6.45039 14.0055 6.45039C15.3863 6.45039 16.7098 6.86875 17.8336 7.65898C18.3777 8.0418 18.859 8.50117 19.2664 9.02344C19.6793 9.55117 20.0074 10.1363 20.2426 10.757L20.6199 11.7551L21.6535 12.0285C23.1355 12.4277 24.1719 13.7758 24.1719 15.3125C24.1719 16.2176 23.8191 17.0707 23.1793 17.7105C22.8655 18.0262 22.4922 18.2764 22.0811 18.4468C21.6699 18.6172 21.229 18.7043 20.784 18.7031H19.6875C19.5672 18.7031 19.4688 18.8016 19.4688 18.9219V20.5625C19.4688 20.6828 19.5672 20.7812 19.6875 20.7812H20.784C23.8027 20.7812 26.25 18.334 26.25 15.3125C26.25 12.7777 24.5246 10.6449 22.1867 10.027Z" fill="#258950"/>
</svg>
