<svg width="629" height="332" viewBox="0 0 629 332" fill="none" xmlns="http://www.w3.org/2000/svg">
<rect x="0.5" y="0.5" width="628" height="331" rx="9.5" fill="white" stroke="#DBE8F4"/>
<path d="M24.01 23.87C24.01 24.56 24.08 25.205 24.22 25.805C24.36 26.395 24.575 26.935 24.865 27.425C25.505 28.535 26.435 29.445 27.655 30.155C27.575 30.215 27.49 30.285 27.4 30.365C27.32 30.445 27.24 30.52 27.16 30.59C27.08 30.67 27.005 30.75 26.935 30.83C26.865 30.9 26.805 30.96 26.755 31.01C26.445 30.8 26.13 30.56 25.81 30.29C25.5 30.01 25.2 29.705 24.91 29.375C24.6 29.015 24.315 28.625 24.055 28.205C23.795 27.785 23.575 27.33 23.395 26.84C23.275 27.29 23.095 27.73 22.855 28.16C22.615 28.58 22.345 28.985 22.045 29.375C21.735 29.795 21.405 30.175 21.055 30.515C20.705 30.845 20.365 31.12 20.035 31.34C19.915 31.23 19.755 31.1 19.555 30.95C19.355 30.79 19.17 30.655 19 30.545C20.21 29.795 21.155 28.82 21.835 27.62C22.145 27.05 22.38 26.435 22.54 25.775C22.7 25.115 22.78 24.41 22.78 23.66V21.17H24.01V23.87ZM29.95 33.965H28.765V20.66H29.95V25.76H31.915V26.825H29.95V33.965ZM43.0461 32.735C42.7561 33.185 42.2461 33.545 41.5161 33.815C40.7861 34.085 39.8161 34.22 38.6061 34.22C37.8061 34.22 37.1061 34.155 36.5061 34.025C35.9161 33.905 35.4211 33.735 35.0211 33.515C34.6211 33.295 34.3211 33.035 34.1211 32.735C33.9311 32.435 33.8361 32.105 33.8361 31.745C33.8361 31.025 34.2311 30.435 35.0211 29.975C35.8211 29.515 37.0161 29.285 38.6061 29.285C39.3961 29.285 40.0861 29.35 40.6761 29.48C41.2761 29.6 41.7711 29.77 42.1611 29.99C42.5611 30.21 42.8561 30.47 43.0461 30.77C43.2461 31.07 43.3461 31.4 43.3461 31.76C43.3461 32.09 43.2461 32.415 43.0461 32.735ZM41.0961 32.885C41.7161 32.615 42.0261 32.24 42.0261 31.76C42.0261 31.25 41.7211 30.86 41.1111 30.59C40.5011 30.31 39.6661 30.17 38.6061 30.17C37.4861 30.17 36.6261 30.31 36.0261 30.59C35.4361 30.87 35.1411 31.255 35.1411 31.745C35.1411 32.235 35.4361 32.615 36.0261 32.885C36.6261 33.165 37.4861 33.305 38.6061 33.305C39.7061 33.305 40.5361 33.165 41.0961 32.885ZM40.2261 27.2V25.52C39.9761 25.58 39.7111 25.62 39.4311 25.64C39.1511 25.66 38.8711 25.67 38.5911 25.67C38.3111 25.67 38.0311 25.66 37.7511 25.64C37.4811 25.62 37.2361 25.585 37.0161 25.535V27.2H40.2261ZM41.0361 24.29C41.6761 23.99 41.9961 23.6 41.9961 23.12C41.9961 22.64 41.6911 22.245 41.0811 21.935C40.4711 21.625 39.6411 21.47 38.5911 21.47C37.5011 21.47 36.6611 21.62 36.0711 21.92C35.4911 22.22 35.2011 22.61 35.2011 23.09C35.2011 23.55 35.5111 23.94 36.1311 24.26C36.7411 24.57 37.5611 24.725 38.5911 24.725C39.5011 24.725 40.3161 24.58 41.0361 24.29ZM44.6811 28.22H32.5011V27.2H35.8461V25.25C35.2061 25.01 34.7261 24.705 34.4061 24.335C34.0961 23.965 33.9411 23.555 33.9411 23.105C33.9411 22.415 34.3311 21.82 35.1111 21.32C35.9111 20.82 37.0711 20.57 38.5911 20.57C40.1711 20.57 41.3461 20.825 42.1161 21.335C42.8861 21.835 43.2711 22.435 43.2711 23.135C43.2711 23.565 43.1111 23.965 42.7911 24.335C42.4811 24.705 42.0111 25.01 41.3811 25.25V27.2H44.6811V28.22ZM53.2771 22.43H50.3521V23.72C50.3521 25.08 50.6471 26.28 51.2371 27.32C51.8471 28.44 52.7721 29.355 54.0121 30.065C53.8821 30.175 53.7321 30.315 53.5621 30.485C53.3921 30.655 53.2571 30.795 53.1571 30.905C52.8171 30.695 52.4871 30.455 52.1671 30.185C51.8471 29.915 51.5521 29.615 51.2821 29.285C50.6321 28.545 50.1221 27.7 49.7521 26.75C49.6221 27.2 49.4371 27.64 49.1971 28.07C48.9671 28.49 48.7021 28.895 48.4021 29.285C48.1021 29.705 47.7771 30.085 47.4271 30.425C47.0771 30.755 46.7371 31.035 46.4071 31.265C46.2671 31.145 46.0971 31.01 45.8971 30.86C45.7071 30.71 45.5221 30.575 45.3421 30.455C45.9521 30.085 46.4921 29.665 46.9621 29.195C47.4321 28.725 47.8271 28.19 48.1471 27.59C48.4671 27.02 48.7121 26.395 48.8821 25.715C49.0521 25.035 49.1371 24.305 49.1371 23.525V22.43H46.3021V21.425H53.2771V22.43ZM56.1421 33.965H54.9721V20.66H56.1421V25.76H58.1221V26.825H56.1421V33.965ZM70.9188 23.45H63.5088V22.49H70.9188V23.45ZM69.2238 21.575H65.3088V20.63H69.2238V21.575ZM64.0338 26.555C64.0338 25.845 64.3388 25.275 64.9488 24.845C65.5588 24.395 66.3538 24.17 67.3338 24.17C68.3038 24.17 69.0988 24.395 69.7188 24.845C70.3288 25.275 70.6338 25.845 70.6338 26.555C70.6338 26.915 70.5488 27.245 70.3788 27.545C70.2088 27.835 69.9788 28.09 69.6888 28.31C69.3988 28.52 69.0538 28.685 68.6538 28.805C68.2538 28.925 67.8138 28.985 67.3338 28.985C66.8538 28.985 66.4088 28.925 65.9988 28.805C65.5988 28.685 65.2538 28.52 64.9638 28.31C64.6738 28.09 64.4438 27.835 64.2738 27.545C64.1138 27.245 64.0338 26.915 64.0338 26.555ZM68.8638 27.62C69.2338 27.34 69.4188 26.985 69.4188 26.555C69.4188 26.135 69.2338 25.79 68.8638 25.52C68.5038 25.25 67.9938 25.115 67.3338 25.115C66.6738 25.115 66.1588 25.25 65.7888 25.52C65.4288 25.79 65.2488 26.135 65.2488 26.555C65.2488 26.985 65.4288 27.34 65.7888 27.62C66.1588 27.9 66.6738 28.04 67.3338 28.04C68.0138 28.04 68.5238 27.9 68.8638 27.62ZM74.3538 30.455H73.1838V27.905H70.9788V26.915H73.1838V25.115H70.9788V24.125H73.1838V20.66H74.3538V30.455ZM74.7288 33.71H66.0438C65.9238 33.71 65.8388 33.685 65.7888 33.635C65.7488 33.595 65.7288 33.515 65.7288 33.395V29.915H66.9138V32.69H74.7288V33.71ZM84.2398 23.015H76.9348V22.13H84.2398V23.015ZM82.4548 21.485H78.7498V20.6H82.4548V21.485ZM85.1998 28.79C84.8798 28.85 84.5198 28.905 84.1198 28.955C83.7298 28.995 83.3148 29.035 82.8748 29.075C82.4348 29.105 81.9798 29.13 81.5098 29.15C81.0398 29.16 80.5748 29.165 80.1148 29.165H76.3198V28.235H80.0248V27.155C79.6348 27.125 79.2748 27.06 78.9448 26.96C78.6248 26.85 78.3498 26.72 78.1198 26.57C77.8898 26.41 77.7098 26.23 77.5798 26.03C77.4498 25.83 77.3848 25.615 77.3848 25.385C77.3848 25.115 77.4598 24.87 77.6098 24.65C77.7698 24.43 77.9898 24.245 78.2698 24.095C78.5598 23.935 78.9048 23.815 79.3048 23.735C79.7048 23.645 80.1448 23.6 80.6248 23.6C81.1048 23.6 81.5398 23.645 81.9298 23.735C82.3298 23.815 82.6698 23.935 82.9498 24.095C83.2398 24.245 83.4648 24.43 83.6248 24.65C83.7848 24.87 83.8648 25.115 83.8648 25.385C83.8648 25.615 83.7998 25.83 83.6698 26.03C83.5398 26.22 83.3598 26.395 83.1298 26.555C82.9098 26.705 82.6398 26.835 82.3198 26.945C81.9998 27.045 81.6548 27.115 81.2848 27.155V28.205C81.5348 28.205 81.8298 28.195 82.1698 28.175C82.5198 28.145 82.8798 28.115 83.2498 28.085C83.6198 28.055 83.9748 28.02 84.3148 27.98C84.6648 27.94 84.9598 27.9 85.1998 27.86V28.79ZM82.0648 26.12C82.4248 25.96 82.6048 25.73 82.6048 25.43C82.6048 25.11 82.4248 24.865 82.0648 24.695C81.7148 24.515 81.2348 24.425 80.6248 24.425C80.0148 24.425 79.5298 24.515 79.1698 24.695C78.8198 24.865 78.6448 25.11 78.6448 25.43C78.6448 25.72 78.8198 25.95 79.1698 26.12C79.5298 26.29 80.0148 26.375 80.6248 26.375C81.1848 26.375 81.6648 26.29 82.0648 26.12ZM86.8648 29.81H85.7098V20.675H86.8648V24.98H88.7248V26.015H86.8648V29.81ZM87.1348 32.045C87.1348 32.685 86.7498 33.21 85.9798 33.62C85.2098 34.03 84.0548 34.235 82.5148 34.235C80.9848 34.235 79.8348 34.025 79.0648 33.605C78.2948 33.195 77.9098 32.67 77.9098 32.03C77.9098 31.37 78.2898 30.845 79.0498 30.455C79.8198 30.065 80.9748 29.87 82.5148 29.87C84.0548 29.87 85.2098 30.07 85.9798 30.47C86.7498 30.86 87.1348 31.385 87.1348 32.045ZM84.8698 33.005C85.4798 32.825 85.7848 32.515 85.7848 32.075C85.7848 31.855 85.7048 31.665 85.5448 31.505C85.3848 31.335 85.1598 31.2 84.8698 31.1C84.5898 30.99 84.2498 30.91 83.8498 30.86C83.4498 30.81 83.0098 30.785 82.5298 30.785C82.0498 30.785 81.6048 30.81 81.1948 30.86C80.7948 30.9 80.4498 30.975 80.1598 31.085C79.8798 31.185 79.6598 31.315 79.4998 31.475C79.3398 31.635 79.2598 31.825 79.2598 32.045C79.2598 32.275 79.3398 32.465 79.4998 32.615C79.6598 32.775 79.8798 32.905 80.1598 33.005C80.4498 33.105 80.7948 33.175 81.1948 33.215C81.6048 33.265 82.0498 33.29 82.5298 33.29C83.5498 33.29 84.3298 33.195 84.8698 33.005Z" fill="black"/>
<path d="M29.5484 104.416H28.5214V96.044C28.2874 96.2953 27.9971 96.5337 27.6504 96.759C27.3037 96.9843 26.9181 97.2053 26.4934 97.422V96.434C26.8834 96.2607 27.2474 96.0483 27.5854 95.797C27.9321 95.537 28.2571 95.2467 28.5604 94.926H29.3014C29.3967 94.926 29.4617 94.9433 29.4964 94.978C29.5311 95.0127 29.5484 95.0777 29.5484 95.173V104.416ZM36.8216 103.545C37.1076 103.372 37.3329 103.129 37.4976 102.817C37.6709 102.505 37.8009 102.163 37.8876 101.79C37.9829 101.417 38.0436 101.04 38.0696 100.659C38.0956 100.278 38.1086 99.931 38.1086 99.619C38.1086 99.255 38.0869 98.8347 38.0436 98.358C38.0003 97.8727 37.9049 97.4133 37.7576 96.98C37.6189 96.5467 37.4109 96.1827 37.1336 95.888C36.8563 95.5847 36.4836 95.433 36.0156 95.433C35.5563 95.433 35.1923 95.5847 34.9236 95.888C34.6636 96.1827 34.4643 96.5467 34.3256 96.98C34.1956 97.4133 34.1133 97.8727 34.0786 98.358C34.0439 98.8347 34.0266 99.255 34.0266 99.619C34.0266 99.8617 34.0309 100.13 34.0396 100.425C34.0569 100.72 34.0873 101.023 34.1306 101.335C34.1739 101.638 34.2389 101.937 34.3256 102.232C34.4123 102.518 34.5293 102.774 34.6766 102.999C34.8239 103.224 35.0059 103.406 35.2226 103.545C35.4393 103.684 35.7036 103.753 36.0156 103.753C36.3363 103.753 36.6049 103.684 36.8216 103.545ZM38.5766 103.051C38.3513 103.528 38.0306 103.913 37.6146 104.208C37.1986 104.511 36.6656 104.663 36.0156 104.663C35.3743 104.663 34.8543 104.511 34.4556 104.208C34.0569 103.913 33.7449 103.528 33.5196 103.051C33.2943 102.574 33.1426 102.037 33.0646 101.439C32.9866 100.832 32.9476 100.226 32.9476 99.619C32.9476 99.0123 32.9866 98.4057 33.0646 97.799C33.1426 97.1923 33.2943 96.6463 33.5196 96.161C33.7449 95.6757 34.0569 95.2857 34.4556 94.991C34.8543 94.6877 35.3743 94.536 36.0156 94.536C36.6656 94.536 37.1943 94.6877 37.6016 94.991C38.0176 95.2857 38.3426 95.6757 38.5766 96.161C38.8106 96.6463 38.9709 97.1923 39.0576 97.799C39.1443 98.4057 39.1876 99.0123 39.1876 99.619C39.1876 100.243 39.1443 100.85 39.0576 101.439C38.9709 102.02 38.8106 102.557 38.5766 103.051ZM44.1468 103.545C44.4328 103.372 44.6581 103.129 44.8228 102.817C44.9961 102.505 45.1261 102.163 45.2128 101.79C45.3081 101.417 45.3688 101.04 45.3948 100.659C45.4208 100.278 45.4338 99.931 45.4338 99.619C45.4338 99.255 45.4121 98.8347 45.3688 98.358C45.3255 97.8727 45.2301 97.4133 45.0828 96.98C44.9441 96.5467 44.7361 96.1827 44.4588 95.888C44.1815 95.5847 43.8088 95.433 43.3408 95.433C42.8815 95.433 42.5175 95.5847 42.2488 95.888C41.9888 96.1827 41.7895 96.5467 41.6508 96.98C41.5208 97.4133 41.4385 97.8727 41.4038 98.358C41.3691 98.8347 41.3518 99.255 41.3518 99.619C41.3518 99.8617 41.3561 100.13 41.3648 100.425C41.3821 100.72 41.4125 101.023 41.4558 101.335C41.4991 101.638 41.5641 101.937 41.6508 102.232C41.7375 102.518 41.8545 102.774 42.0018 102.999C42.1491 103.224 42.3311 103.406 42.5478 103.545C42.7645 103.684 43.0288 103.753 43.3408 103.753C43.6615 103.753 43.9301 103.684 44.1468 103.545ZM45.9018 103.051C45.6765 103.528 45.3558 103.913 44.9398 104.208C44.5238 104.511 43.9908 104.663 43.3408 104.663C42.6995 104.663 42.1795 104.511 41.7808 104.208C41.3821 103.913 41.0701 103.528 40.8448 103.051C40.6195 102.574 40.4678 102.037 40.3898 101.439C40.3118 100.832 40.2728 100.226 40.2728 99.619C40.2728 99.0123 40.3118 98.4057 40.3898 97.799C40.4678 97.1923 40.6195 96.6463 40.8448 96.161C41.0701 95.6757 41.3821 95.2857 41.7808 94.991C42.1795 94.6877 42.6995 94.536 43.3408 94.536C43.9908 94.536 44.5195 94.6877 44.9268 94.991C45.3428 95.2857 45.6678 95.6757 45.9018 96.161C46.1358 96.6463 46.2961 97.1923 46.3828 97.799C46.4695 98.4057 46.5128 99.0123 46.5128 99.619C46.5128 100.243 46.4695 100.85 46.3828 101.439C46.2961 102.02 46.1358 102.557 45.9018 103.051Z" fill="#8F9091"/>
<path d="M37.4066 135.566C37.5799 135.419 37.7186 135.241 37.8226 135.033C37.9266 134.816 37.9786 134.569 37.9786 134.292C37.9786 134.032 37.9266 133.798 37.8226 133.59C37.7186 133.373 37.5799 133.191 37.4066 133.044C37.2333 132.888 37.0253 132.771 36.7826 132.693C36.5399 132.615 36.2843 132.576 36.0156 132.576C35.7469 132.576 35.4913 132.615 35.2486 132.693C35.0146 132.771 34.8066 132.888 34.6246 133.044C34.4513 133.191 34.3126 133.373 34.2086 133.59C34.1046 133.798 34.0526 134.032 34.0526 134.292C34.0526 134.569 34.1003 134.816 34.1956 135.033C34.2996 135.241 34.4383 135.419 34.6116 135.566C34.7849 135.705 34.9929 135.813 35.2356 135.891C35.4783 135.969 35.7383 136.008 36.0156 136.008C36.2843 136.008 36.5399 135.969 36.7826 135.891C37.0253 135.813 37.2333 135.705 37.4066 135.566ZM37.5366 140.233C37.9093 139.886 38.0956 139.427 38.0956 138.855C38.0956 138.543 38.0349 138.27 37.9136 138.036C37.7923 137.793 37.6319 137.594 37.4326 137.438C37.2419 137.273 37.0209 137.152 36.7696 137.074C36.5269 136.996 36.2756 136.957 36.0156 136.957C35.7556 136.957 35.4999 136.996 35.2486 137.074C34.9973 137.152 34.7719 137.273 34.5726 137.438C34.3819 137.594 34.2259 137.793 34.1046 138.036C33.9919 138.27 33.9356 138.543 33.9356 138.855C33.9356 139.427 34.1176 139.886 34.4816 140.233C34.8543 140.58 35.3656 140.753 36.0156 140.753C36.6569 140.753 37.1639 140.58 37.5366 140.233ZM38.0176 136.203C37.8096 136.359 37.5756 136.472 37.3156 136.541C37.8876 136.697 38.3339 136.979 38.6546 137.386C38.9753 137.785 39.1356 138.27 39.1356 138.842C39.1356 139.284 39.0576 139.678 38.9016 140.025C38.7543 140.372 38.5419 140.666 38.2646 140.909C37.9873 141.143 37.6536 141.321 37.2636 141.442C36.8823 141.563 36.4619 141.624 36.0026 141.624C35.5433 141.624 35.1229 141.563 34.7416 141.442C34.3603 141.321 34.0309 141.143 33.7536 140.909C33.4849 140.666 33.2726 140.372 33.1166 140.025C32.9693 139.678 32.8956 139.284 32.8956 138.842C32.8956 138.469 32.9823 138.114 33.1556 137.776C33.3376 137.438 33.5976 137.143 33.9356 136.892C33.9963 136.849 34.0526 136.81 34.1046 136.775C34.1653 136.74 34.2303 136.706 34.2996 136.671C34.3689 136.636 34.4383 136.606 34.5076 136.58C34.5856 136.545 34.6593 136.515 34.7286 136.489C34.4599 136.437 34.2173 136.342 34.0006 136.203C33.7926 136.056 33.6149 135.882 33.4676 135.683C33.3203 135.484 33.2076 135.263 33.1296 135.02C33.0516 134.777 33.0126 134.53 33.0126 134.279C33.0126 133.872 33.0863 133.508 33.2336 133.187C33.3809 132.866 33.5846 132.598 33.8446 132.381C34.1133 132.156 34.4296 131.987 34.7936 131.874C35.1663 131.761 35.5736 131.705 36.0156 131.705C36.4576 131.705 36.8606 131.761 37.2246 131.874C37.5973 131.987 37.9136 132.156 38.1736 132.381C38.4423 132.598 38.6503 132.866 38.7976 133.187C38.9449 133.508 39.0186 133.872 39.0186 134.279C39.0186 134.626 38.9276 134.972 38.7456 135.319C38.5636 135.666 38.3209 135.96 38.0176 136.203ZM44.1468 140.545C44.4328 140.372 44.6581 140.129 44.8228 139.817C44.9961 139.505 45.1261 139.163 45.2128 138.79C45.3081 138.417 45.3688 138.04 45.3948 137.659C45.4208 137.278 45.4338 136.931 45.4338 136.619C45.4338 136.255 45.4121 135.835 45.3688 135.358C45.3255 134.873 45.2301 134.413 45.0828 133.98C44.9441 133.547 44.7361 133.183 44.4588 132.888C44.1815 132.585 43.8088 132.433 43.3408 132.433C42.8815 132.433 42.5175 132.585 42.2488 132.888C41.9888 133.183 41.7895 133.547 41.6508 133.98C41.5208 134.413 41.4385 134.873 41.4038 135.358C41.3691 135.835 41.3518 136.255 41.3518 136.619C41.3518 136.862 41.3561 137.13 41.3648 137.425C41.3821 137.72 41.4125 138.023 41.4558 138.335C41.4991 138.638 41.5641 138.937 41.6508 139.232C41.7375 139.518 41.8545 139.774 42.0018 139.999C42.1491 140.224 42.3311 140.406 42.5478 140.545C42.7645 140.684 43.0288 140.753 43.3408 140.753C43.6615 140.753 43.9301 140.684 44.1468 140.545ZM45.9018 140.051C45.6765 140.528 45.3558 140.913 44.9398 141.208C44.5238 141.511 43.9908 141.663 43.3408 141.663C42.6995 141.663 42.1795 141.511 41.7808 141.208C41.3821 140.913 41.0701 140.528 40.8448 140.051C40.6195 139.574 40.4678 139.037 40.3898 138.439C40.3118 137.832 40.2728 137.226 40.2728 136.619C40.2728 136.012 40.3118 135.406 40.3898 134.799C40.4678 134.192 40.6195 133.646 40.8448 133.161C41.0701 132.676 41.3821 132.286 41.7808 131.991C42.1795 131.688 42.6995 131.536 43.3408 131.536C43.9908 131.536 44.5195 131.688 44.9268 131.991C45.3428 132.286 45.6678 132.676 45.9018 133.161C46.1358 133.646 46.2961 134.192 46.3828 134.799C46.4695 135.406 46.5128 136.012 46.5128 136.619C46.5128 137.243 46.4695 137.85 46.3828 138.439C46.2961 139.02 46.1358 139.557 45.9018 140.051Z" fill="#8F9091"/>
<path d="M36.8736 177.584C37.2636 177.402 37.5583 177.12 37.7576 176.739C37.9569 176.349 38.0566 175.903 38.0566 175.4C38.0566 175.088 38.0133 174.789 37.9266 174.503C37.8399 174.217 37.7099 173.966 37.5366 173.749C37.3719 173.532 37.1639 173.363 36.9126 173.242C36.6613 173.112 36.3709 173.047 36.0416 173.047C35.7469 173.047 35.4783 173.108 35.2356 173.229C34.9929 173.35 34.7806 173.515 34.5986 173.723C34.4253 173.931 34.2866 174.169 34.1826 174.438C34.0873 174.707 34.0396 174.988 34.0396 175.283C34.0396 175.638 34.0873 175.968 34.1826 176.271C34.2779 176.566 34.4123 176.826 34.5856 177.051C34.7589 177.276 34.9669 177.454 35.2096 177.584C35.4523 177.705 35.7209 177.766 36.0156 177.766C36.2756 177.766 36.5616 177.705 36.8736 177.584ZM37.9136 171.188C37.9049 170.945 37.8529 170.724 37.7576 170.525C37.6623 170.326 37.5323 170.157 37.3676 170.018C37.2116 169.879 37.0296 169.775 36.8216 169.706C36.6136 169.628 36.3926 169.589 36.1586 169.589C35.6993 169.589 35.3179 169.732 35.0146 170.018C34.7113 170.304 34.4686 170.664 34.2866 171.097C34.1046 171.522 33.9746 171.985 33.8966 172.488C33.8273 172.991 33.7926 173.459 33.7926 173.892C33.9919 173.32 34.3126 172.904 34.7546 172.644C35.2053 172.375 35.7209 172.241 36.3016 172.241C36.7263 172.241 37.1119 172.319 37.4586 172.475C37.8053 172.622 38.0956 172.835 38.3296 173.112C38.5723 173.389 38.7586 173.727 38.8886 174.126C39.0186 174.516 39.0836 174.949 39.0836 175.426C39.0836 175.877 39.0143 176.297 38.8756 176.687C38.7456 177.077 38.5506 177.419 38.2906 177.714C38.0393 178 37.7316 178.225 37.3676 178.39C37.0036 178.555 36.5919 178.637 36.1326 178.637C35.3959 178.637 34.7849 178.446 34.2996 178.065C33.8143 177.692 33.4676 177.216 33.2596 176.635C33.1383 176.28 33.0473 175.898 32.9866 175.491C32.9259 175.075 32.8956 174.568 32.8956 173.97C32.8956 173.103 32.9779 172.345 33.1426 171.695C33.3073 171.036 33.5326 170.486 33.8186 170.044C34.1046 169.602 34.4469 169.273 34.8456 169.056C35.2443 168.831 35.6776 168.718 36.1456 168.718C36.9603 168.718 37.6059 168.939 38.0826 169.381C38.5679 169.823 38.8539 170.425 38.9406 171.188H37.9136ZM44.1468 177.545C44.4328 177.372 44.6581 177.129 44.8228 176.817C44.9961 176.505 45.1261 176.163 45.2128 175.79C45.3081 175.417 45.3688 175.04 45.3948 174.659C45.4208 174.278 45.4338 173.931 45.4338 173.619C45.4338 173.255 45.4121 172.835 45.3688 172.358C45.3255 171.873 45.2301 171.413 45.0828 170.98C44.9441 170.547 44.7361 170.183 44.4588 169.888C44.1815 169.585 43.8088 169.433 43.3408 169.433C42.8815 169.433 42.5175 169.585 42.2488 169.888C41.9888 170.183 41.7895 170.547 41.6508 170.98C41.5208 171.413 41.4385 171.873 41.4038 172.358C41.3691 172.835 41.3518 173.255 41.3518 173.619C41.3518 173.862 41.3561 174.13 41.3648 174.425C41.3821 174.72 41.4125 175.023 41.4558 175.335C41.4991 175.638 41.5641 175.937 41.6508 176.232C41.7375 176.518 41.8545 176.774 42.0018 176.999C42.1491 177.224 42.3311 177.406 42.5478 177.545C42.7645 177.684 43.0288 177.753 43.3408 177.753C43.6615 177.753 43.9301 177.684 44.1468 177.545ZM45.9018 177.051C45.6765 177.528 45.3558 177.913 44.9398 178.208C44.5238 178.511 43.9908 178.663 43.3408 178.663C42.6995 178.663 42.1795 178.511 41.7808 178.208C41.3821 177.913 41.0701 177.528 40.8448 177.051C40.6195 176.574 40.4678 176.037 40.3898 175.439C40.3118 174.832 40.2728 174.226 40.2728 173.619C40.2728 173.012 40.3118 172.406 40.3898 171.799C40.4678 171.192 40.6195 170.646 40.8448 170.161C41.0701 169.676 41.3821 169.286 41.7808 168.991C42.1795 168.688 42.6995 168.536 43.3408 168.536C43.9908 168.536 44.5195 168.688 44.9268 168.991C45.3428 169.286 45.6678 169.676 45.9018 170.161C46.1358 170.646 46.2961 171.192 46.3828 171.799C46.4695 172.406 46.5128 173.012 46.5128 173.619C46.5128 174.243 46.4695 174.85 46.3828 175.439C46.2961 176.02 46.1358 176.557 45.9018 177.051Z" fill="#8F9091"/>
<path d="M36.9126 212.439V208.136L36.9386 206.94L33.5846 212.439H36.9126ZM37.9006 215.416H36.8866V213.336H32.8436C32.6789 213.336 32.5966 213.254 32.5966 213.089V212.543C32.5966 212.422 32.6356 212.3 32.7136 212.179L36.5096 205.952C36.5616 205.839 36.6483 205.783 36.7696 205.783H37.6536C37.7489 205.783 37.8139 205.8 37.8486 205.835C37.8833 205.87 37.9006 205.935 37.9006 206.03V212.439H39.3176V213.336H37.9006V215.416ZM44.1468 214.545C44.4328 214.372 44.6581 214.129 44.8228 213.817C44.9961 213.505 45.1261 213.163 45.2128 212.79C45.3081 212.417 45.3688 212.04 45.3948 211.659C45.4208 211.278 45.4338 210.931 45.4338 210.619C45.4338 210.255 45.4121 209.835 45.3688 209.358C45.3255 208.873 45.2301 208.413 45.0828 207.98C44.9441 207.547 44.7361 207.183 44.4588 206.888C44.1815 206.585 43.8088 206.433 43.3408 206.433C42.8815 206.433 42.5175 206.585 42.2488 206.888C41.9888 207.183 41.7895 207.547 41.6508 207.98C41.5208 208.413 41.4385 208.873 41.4038 209.358C41.3691 209.835 41.3518 210.255 41.3518 210.619C41.3518 210.862 41.3561 211.13 41.3648 211.425C41.3821 211.72 41.4125 212.023 41.4558 212.335C41.4991 212.638 41.5641 212.937 41.6508 213.232C41.7375 213.518 41.8545 213.774 42.0018 213.999C42.1491 214.224 42.3311 214.406 42.5478 214.545C42.7645 214.684 43.0288 214.753 43.3408 214.753C43.6615 214.753 43.9301 214.684 44.1468 214.545ZM45.9018 214.051C45.6765 214.528 45.3558 214.913 44.9398 215.208C44.5238 215.511 43.9908 215.663 43.3408 215.663C42.6995 215.663 42.1795 215.511 41.7808 215.208C41.3821 214.913 41.0701 214.528 40.8448 214.051C40.6195 213.574 40.4678 213.037 40.3898 212.439C40.3118 211.832 40.2728 211.226 40.2728 210.619C40.2728 210.012 40.3118 209.406 40.3898 208.799C40.4678 208.192 40.6195 207.646 40.8448 207.161C41.0701 206.676 41.3821 206.286 41.7808 205.991C42.1795 205.688 42.6995 205.536 43.3408 205.536C43.9908 205.536 44.5195 205.688 44.9268 205.991C45.3428 206.286 45.6678 206.676 45.9018 207.161C46.1358 207.646 46.2961 208.192 46.3828 208.799C46.4695 209.406 46.5128 210.012 46.5128 210.619C46.5128 211.243 46.4695 211.85 46.3828 212.439C46.2961 213.02 46.1358 213.557 45.9018 214.051Z" fill="#8F9091"/>
<path d="M38.8496 252.416H33.1426C33.0646 252.416 33.0126 252.403 32.9866 252.377C32.9693 252.351 32.9606 252.299 32.9606 252.221V251.441C33.1599 251.25 33.4113 251.003 33.7146 250.7C34.0266 250.397 34.3516 250.063 34.6896 249.699C35.0363 249.326 35.3786 248.941 35.7166 248.542C36.0633 248.143 36.3709 247.749 36.6396 247.359C36.9169 246.96 37.1423 246.583 37.3156 246.228C37.4889 245.873 37.5756 245.561 37.5756 245.292C37.5843 244.72 37.4196 244.295 37.0816 244.018C36.7523 243.741 36.3276 243.602 35.8076 243.602C35.3049 243.602 34.8933 243.771 34.5726 244.109C34.2606 244.447 34.1046 244.902 34.1046 245.474H33.0386C33.0386 245.049 33.1079 244.668 33.2466 244.33C33.3939 243.992 33.5933 243.702 33.8446 243.459C34.0959 243.216 34.3906 243.03 34.7286 242.9C35.0666 242.77 35.4349 242.705 35.8336 242.705C36.2323 242.705 36.6006 242.761 36.9386 242.874C37.2853 242.978 37.5843 243.134 37.8356 243.342C38.0869 243.55 38.2819 243.81 38.4206 244.122C38.5679 244.434 38.6416 244.798 38.6416 245.214C38.6416 245.569 38.5636 245.942 38.4076 246.332C38.2516 246.722 38.0436 247.116 37.7836 247.515C37.5323 247.905 37.2419 248.295 36.9126 248.685C36.5919 249.066 36.2626 249.43 35.9246 249.777C35.5953 250.124 35.2746 250.449 34.9626 250.752C34.6506 251.047 34.3776 251.302 34.1436 251.519H38.8496V252.416ZM44.1468 251.545C44.4328 251.372 44.6581 251.129 44.8228 250.817C44.9961 250.505 45.1261 250.163 45.2128 249.79C45.3081 249.417 45.3688 249.04 45.3948 248.659C45.4208 248.278 45.4338 247.931 45.4338 247.619C45.4338 247.255 45.4121 246.835 45.3688 246.358C45.3255 245.873 45.2301 245.413 45.0828 244.98C44.9441 244.547 44.7361 244.183 44.4588 243.888C44.1815 243.585 43.8088 243.433 43.3408 243.433C42.8815 243.433 42.5175 243.585 42.2488 243.888C41.9888 244.183 41.7895 244.547 41.6508 244.98C41.5208 245.413 41.4385 245.873 41.4038 246.358C41.3691 246.835 41.3518 247.255 41.3518 247.619C41.3518 247.862 41.3561 248.13 41.3648 248.425C41.3821 248.72 41.4125 249.023 41.4558 249.335C41.4991 249.638 41.5641 249.937 41.6508 250.232C41.7375 250.518 41.8545 250.774 42.0018 250.999C42.1491 251.224 42.3311 251.406 42.5478 251.545C42.7645 251.684 43.0288 251.753 43.3408 251.753C43.6615 251.753 43.9301 251.684 44.1468 251.545ZM45.9018 251.051C45.6765 251.528 45.3558 251.913 44.9398 252.208C44.5238 252.511 43.9908 252.663 43.3408 252.663C42.6995 252.663 42.1795 252.511 41.7808 252.208C41.3821 251.913 41.0701 251.528 40.8448 251.051C40.6195 250.574 40.4678 250.037 40.3898 249.439C40.3118 248.832 40.2728 248.226 40.2728 247.619C40.2728 247.012 40.3118 246.406 40.3898 245.799C40.4678 245.192 40.6195 244.646 40.8448 244.161C41.0701 243.676 41.3821 243.286 41.7808 242.991C42.1795 242.688 42.6995 242.536 43.3408 242.536C43.9908 242.536 44.5195 242.688 44.9268 242.991C45.3428 243.286 45.6678 243.676 45.9018 244.161C46.1358 244.646 46.2961 245.192 46.3828 245.799C46.4695 246.406 46.5128 247.012 46.5128 247.619C46.5128 248.243 46.4695 248.85 46.3828 249.439C46.2961 250.02 46.1358 250.557 45.9018 251.051Z" fill="#8F9091"/>
<path d="M94.6589 310.416H93.5019L97.0639 301.823H92.2929V300.926H97.9089C98.0736 300.926 98.1559 301.008 98.1559 301.173V301.667C98.1559 301.736 98.1429 301.801 98.1169 301.862C98.0996 301.923 98.0779 301.979 98.0519 302.031L94.6589 310.416ZM106.222 301.914C106.222 302.46 105.979 302.906 105.494 303.253C105.009 303.6 104.32 303.773 103.427 303.773C102.985 303.773 102.591 303.725 102.244 303.63C101.897 303.535 101.607 303.405 101.373 303.24C101.139 303.067 100.957 302.867 100.827 302.642C100.706 302.417 100.645 302.174 100.645 301.914C100.645 301.429 100.888 300.995 101.373 300.614C101.858 300.233 102.543 300.042 103.427 300.042C103.869 300.042 104.263 300.094 104.61 300.198C104.957 300.293 105.247 300.428 105.481 300.601C105.724 300.766 105.906 300.961 106.027 301.186C106.157 301.411 106.222 301.654 106.222 301.914ZM104.779 302.707C105.065 302.49 105.208 302.226 105.208 301.914C105.208 301.611 105.065 301.351 104.779 301.134C104.502 300.909 104.051 300.796 103.427 300.796C103.098 300.796 102.82 300.826 102.595 300.887C102.37 300.948 102.188 301.03 102.049 301.134C101.91 301.238 101.806 301.359 101.737 301.498C101.676 301.628 101.646 301.767 101.646 301.914C101.646 302.217 101.78 302.482 102.049 302.707C102.326 302.924 102.786 303.032 103.427 303.032C104.06 303.032 104.51 302.924 104.779 302.707ZM109.147 306.776H108.146V306.295H105.429V305.593H108.146V300.172H109.147V306.776ZM107.678 304.826C107.435 304.869 107.149 304.908 106.82 304.943C106.491 304.969 106.131 304.995 105.741 305.021C105.351 305.047 104.957 305.069 104.558 305.086C104.159 305.103 103.774 305.112 103.401 305.112V306.75H102.374V305.138H99.7481V304.358H100.983C101.399 304.358 101.893 304.358 102.465 304.358C103.046 304.349 103.648 304.336 104.272 304.319C104.896 304.302 105.503 304.271 106.092 304.228C106.681 304.185 107.21 304.124 107.678 304.046V304.826ZM109.381 311.586H101.88C101.776 311.586 101.702 311.564 101.659 311.521C101.624 311.486 101.607 311.417 101.607 311.313V309.311C101.607 309.207 101.624 309.138 101.659 309.103C101.702 309.06 101.776 309.038 101.88 309.038H108.042V308.141H101.607V307.335H108.848C108.952 307.335 109.021 307.357 109.056 307.4C109.099 307.435 109.121 307.504 109.121 307.608V309.519C109.121 309.623 109.099 309.697 109.056 309.74C109.021 309.775 108.952 309.792 108.848 309.792H102.699V310.78H109.381V311.586Z" fill="#8F9091"/>
<path d="M187.726 304.566C187.899 304.419 188.038 304.241 188.142 304.033C188.246 303.816 188.298 303.569 188.298 303.292C188.298 303.032 188.246 302.798 188.142 302.59C188.038 302.373 187.899 302.191 187.726 302.044C187.553 301.888 187.345 301.771 187.102 301.693C186.859 301.615 186.604 301.576 186.335 301.576C186.066 301.576 185.811 301.615 185.568 301.693C185.334 301.771 185.126 301.888 184.944 302.044C184.771 302.191 184.632 302.373 184.528 302.59C184.424 302.798 184.372 303.032 184.372 303.292C184.372 303.569 184.42 303.816 184.515 304.033C184.619 304.241 184.758 304.419 184.931 304.566C185.104 304.705 185.312 304.813 185.555 304.891C185.798 304.969 186.058 305.008 186.335 305.008C186.604 305.008 186.859 304.969 187.102 304.891C187.345 304.813 187.553 304.705 187.726 304.566ZM187.856 309.233C188.229 308.886 188.415 308.427 188.415 307.855C188.415 307.543 188.354 307.27 188.233 307.036C188.112 306.793 187.951 306.594 187.752 306.438C187.561 306.273 187.34 306.152 187.089 306.074C186.846 305.996 186.595 305.957 186.335 305.957C186.075 305.957 185.819 305.996 185.568 306.074C185.317 306.152 185.091 306.273 184.892 306.438C184.701 306.594 184.545 306.793 184.424 307.036C184.311 307.27 184.255 307.543 184.255 307.855C184.255 308.427 184.437 308.886 184.801 309.233C185.174 309.58 185.685 309.753 186.335 309.753C186.976 309.753 187.483 309.58 187.856 309.233ZM188.337 305.203C188.129 305.359 187.895 305.472 187.635 305.541C188.207 305.697 188.653 305.979 188.974 306.386C189.295 306.785 189.455 307.27 189.455 307.842C189.455 308.284 189.377 308.678 189.221 309.025C189.074 309.372 188.861 309.666 188.584 309.909C188.307 310.143 187.973 310.321 187.583 310.442C187.202 310.563 186.781 310.624 186.322 310.624C185.863 310.624 185.442 310.563 185.061 310.442C184.68 310.321 184.35 310.143 184.073 309.909C183.804 309.666 183.592 309.372 183.436 309.025C183.289 308.678 183.215 308.284 183.215 307.842C183.215 307.469 183.302 307.114 183.475 306.776C183.657 306.438 183.917 306.143 184.255 305.892C184.316 305.849 184.372 305.81 184.424 305.775C184.485 305.74 184.55 305.706 184.619 305.671C184.688 305.636 184.758 305.606 184.827 305.58C184.905 305.545 184.979 305.515 185.048 305.489C184.779 305.437 184.537 305.342 184.32 305.203C184.112 305.056 183.934 304.882 183.787 304.683C183.64 304.484 183.527 304.263 183.449 304.02C183.371 303.777 183.332 303.53 183.332 303.279C183.332 302.872 183.406 302.508 183.553 302.187C183.7 301.866 183.904 301.598 184.164 301.381C184.433 301.156 184.749 300.987 185.113 300.874C185.486 300.761 185.893 300.705 186.335 300.705C186.777 300.705 187.18 300.761 187.544 300.874C187.917 300.987 188.233 301.156 188.493 301.381C188.762 301.598 188.97 301.866 189.117 302.187C189.264 302.508 189.338 302.872 189.338 303.279C189.338 303.626 189.247 303.972 189.065 304.319C188.883 304.666 188.64 304.96 188.337 305.203ZM197.222 301.914C197.222 302.46 196.979 302.906 196.494 303.253C196.009 303.6 195.32 303.773 194.427 303.773C193.985 303.773 193.591 303.725 193.244 303.63C192.897 303.535 192.607 303.405 192.373 303.24C192.139 303.067 191.957 302.867 191.827 302.642C191.706 302.417 191.645 302.174 191.645 301.914C191.645 301.429 191.888 300.995 192.373 300.614C192.858 300.233 193.543 300.042 194.427 300.042C194.869 300.042 195.263 300.094 195.61 300.198C195.957 300.293 196.247 300.428 196.481 300.601C196.724 300.766 196.906 300.961 197.027 301.186C197.157 301.411 197.222 301.654 197.222 301.914ZM195.779 302.707C196.065 302.49 196.208 302.226 196.208 301.914C196.208 301.611 196.065 301.351 195.779 301.134C195.502 300.909 195.051 300.796 194.427 300.796C194.098 300.796 193.82 300.826 193.595 300.887C193.37 300.948 193.188 301.03 193.049 301.134C192.91 301.238 192.806 301.359 192.737 301.498C192.676 301.628 192.646 301.767 192.646 301.914C192.646 302.217 192.78 302.482 193.049 302.707C193.326 302.924 193.786 303.032 194.427 303.032C195.06 303.032 195.51 302.924 195.779 302.707ZM200.147 306.776H199.146V306.295H196.429V305.593H199.146V300.172H200.147V306.776ZM198.678 304.826C198.435 304.869 198.149 304.908 197.82 304.943C197.491 304.969 197.131 304.995 196.741 305.021C196.351 305.047 195.957 305.069 195.558 305.086C195.159 305.103 194.774 305.112 194.401 305.112V306.75H193.374V305.138H190.748V304.358H191.983C192.399 304.358 192.893 304.358 193.465 304.358C194.046 304.349 194.648 304.336 195.272 304.319C195.896 304.302 196.503 304.271 197.092 304.228C197.681 304.185 198.21 304.124 198.678 304.046V304.826ZM200.381 311.586H192.88C192.776 311.586 192.702 311.564 192.659 311.521C192.624 311.486 192.607 311.417 192.607 311.313V309.311C192.607 309.207 192.624 309.138 192.659 309.103C192.702 309.06 192.776 309.038 192.88 309.038H199.042V308.141H192.607V307.335H199.848C199.952 307.335 200.021 307.357 200.056 307.4C200.099 307.435 200.121 307.504 200.121 307.608V309.519C200.121 309.623 200.099 309.697 200.056 309.74C200.021 309.775 199.952 309.792 199.848 309.792H193.699V310.78H200.381V311.586Z" fill="#8F9091"/>
<path d="M278.102 306.113C278.466 305.931 278.756 305.654 278.973 305.281C279.19 304.908 279.298 304.501 279.298 304.059C279.298 303.712 279.25 303.387 279.155 303.084C279.06 302.781 278.921 302.516 278.739 302.291C278.566 302.066 278.358 301.892 278.115 301.771C277.872 301.641 277.604 301.576 277.309 301.576C276.98 301.576 276.689 301.637 276.438 301.758C276.187 301.879 275.974 302.048 275.801 302.265C275.636 302.473 275.506 302.724 275.411 303.019C275.324 303.305 275.281 303.613 275.281 303.942C275.281 304.254 275.324 304.553 275.411 304.839C275.498 305.125 275.623 305.376 275.788 305.593C275.961 305.81 276.174 305.983 276.425 306.113C276.676 306.234 276.967 306.295 277.296 306.295C277.521 306.295 277.79 306.234 278.102 306.113ZM275.45 308.154C275.459 308.405 275.515 308.631 275.619 308.83C275.723 309.021 275.857 309.185 276.022 309.324C276.187 309.463 276.373 309.571 276.581 309.649C276.798 309.718 277.023 309.753 277.257 309.753C277.716 309.753 278.093 309.623 278.388 309.363C278.683 309.103 278.917 308.765 279.09 308.349C279.263 307.933 279.38 307.469 279.441 306.958C279.51 306.447 279.545 305.944 279.545 305.45C279.346 306.022 279.029 306.442 278.596 306.711C278.171 306.971 277.669 307.101 277.088 307.101C276.655 307.101 276.265 307.027 275.918 306.88C275.571 306.724 275.272 306.507 275.021 306.23C274.778 305.953 274.588 305.619 274.449 305.229C274.319 304.839 274.254 304.401 274.254 303.916C274.254 303.465 274.323 303.045 274.462 302.655C274.601 302.265 274.8 301.927 275.06 301.641C275.32 301.346 275.632 301.117 275.996 300.952C276.369 300.787 276.785 300.705 277.244 300.705C277.66 300.705 278.059 300.77 278.44 300.9C278.83 301.03 279.172 301.268 279.467 301.615C279.762 301.962 279.996 302.438 280.169 303.045C280.351 303.652 280.442 304.436 280.442 305.398C280.442 307.14 280.152 308.449 279.571 309.324C278.999 310.191 278.21 310.624 277.205 310.624C276.39 310.624 275.745 310.403 275.268 309.961C274.791 309.519 274.51 308.917 274.423 308.154H275.45ZM288.222 301.914C288.222 302.46 287.979 302.906 287.494 303.253C287.009 303.6 286.32 303.773 285.427 303.773C284.985 303.773 284.591 303.725 284.244 303.63C283.897 303.535 283.607 303.405 283.373 303.24C283.139 303.067 282.957 302.867 282.827 302.642C282.706 302.417 282.645 302.174 282.645 301.914C282.645 301.429 282.888 300.995 283.373 300.614C283.858 300.233 284.543 300.042 285.427 300.042C285.869 300.042 286.263 300.094 286.61 300.198C286.957 300.293 287.247 300.428 287.481 300.601C287.724 300.766 287.906 300.961 288.027 301.186C288.157 301.411 288.222 301.654 288.222 301.914ZM286.779 302.707C287.065 302.49 287.208 302.226 287.208 301.914C287.208 301.611 287.065 301.351 286.779 301.134C286.502 300.909 286.051 300.796 285.427 300.796C285.098 300.796 284.82 300.826 284.595 300.887C284.37 300.948 284.188 301.03 284.049 301.134C283.91 301.238 283.806 301.359 283.737 301.498C283.676 301.628 283.646 301.767 283.646 301.914C283.646 302.217 283.78 302.482 284.049 302.707C284.326 302.924 284.786 303.032 285.427 303.032C286.06 303.032 286.51 302.924 286.779 302.707ZM291.147 306.776H290.146V306.295H287.429V305.593H290.146V300.172H291.147V306.776ZM289.678 304.826C289.435 304.869 289.149 304.908 288.82 304.943C288.491 304.969 288.131 304.995 287.741 305.021C287.351 305.047 286.957 305.069 286.558 305.086C286.159 305.103 285.774 305.112 285.401 305.112V306.75H284.374V305.138H281.748V304.358H282.983C283.399 304.358 283.893 304.358 284.465 304.358C285.046 304.349 285.648 304.336 286.272 304.319C286.896 304.302 287.503 304.271 288.092 304.228C288.681 304.185 289.21 304.124 289.678 304.046V304.826ZM291.381 311.586H283.88C283.776 311.586 283.702 311.564 283.659 311.521C283.624 311.486 283.607 311.417 283.607 311.313V309.311C283.607 309.207 283.624 309.138 283.659 309.103C283.702 309.06 283.776 309.038 283.88 309.038H290.042V308.141H283.607V307.335H290.848C290.952 307.335 291.021 307.357 291.056 307.4C291.099 307.435 291.121 307.504 291.121 307.608V309.519C291.121 309.623 291.099 309.697 291.056 309.74C291.021 309.775 290.952 309.792 290.848 309.792H284.699V310.78H291.381V311.586Z" fill="#8F9091"/>
<path d="M365.53 310.416H364.503V302.044C364.269 302.295 363.979 302.534 363.632 302.759C363.286 302.984 362.9 303.205 362.475 303.422V302.434C362.865 302.261 363.229 302.048 363.567 301.797C363.914 301.537 364.239 301.247 364.542 300.926H365.283C365.379 300.926 365.444 300.943 365.478 300.978C365.513 301.013 365.53 301.078 365.53 301.173V310.416ZM372.804 309.545C373.09 309.372 373.315 309.129 373.48 308.817C373.653 308.505 373.783 308.163 373.87 307.79C373.965 307.417 374.026 307.04 374.052 306.659C374.078 306.278 374.091 305.931 374.091 305.619C374.091 305.255 374.069 304.835 374.026 304.358C373.982 303.873 373.887 303.413 373.74 302.98C373.601 302.547 373.393 302.183 373.116 301.888C372.838 301.585 372.466 301.433 371.998 301.433C371.538 301.433 371.174 301.585 370.906 301.888C370.646 302.183 370.446 302.547 370.308 302.98C370.178 303.413 370.095 303.873 370.061 304.358C370.026 304.835 370.009 305.255 370.009 305.619C370.009 305.862 370.013 306.13 370.022 306.425C370.039 306.72 370.069 307.023 370.113 307.335C370.156 307.638 370.221 307.937 370.308 308.232C370.394 308.518 370.511 308.774 370.659 308.999C370.806 309.224 370.988 309.406 371.205 309.545C371.421 309.684 371.686 309.753 371.998 309.753C372.318 309.753 372.587 309.684 372.804 309.545ZM374.559 309.051C374.333 309.528 374.013 309.913 373.597 310.208C373.181 310.511 372.648 310.663 371.998 310.663C371.356 310.663 370.836 310.511 370.438 310.208C370.039 309.913 369.727 309.528 369.502 309.051C369.276 308.574 369.125 308.037 369.047 307.439C368.969 306.832 368.93 306.226 368.93 305.619C368.93 305.012 368.969 304.406 369.047 303.799C369.125 303.192 369.276 302.646 369.502 302.161C369.727 301.676 370.039 301.286 370.438 300.991C370.836 300.688 371.356 300.536 371.998 300.536C372.648 300.536 373.176 300.688 373.584 300.991C374 301.286 374.325 301.676 374.559 302.161C374.793 302.646 374.953 303.192 375.04 303.799C375.126 304.406 375.17 305.012 375.17 305.619C375.17 306.243 375.126 306.85 375.04 307.439C374.953 308.02 374.793 308.557 374.559 309.051ZM382.885 301.914C382.885 302.46 382.642 302.906 382.157 303.253C381.671 303.6 380.982 303.773 380.09 303.773C379.648 303.773 379.253 303.725 378.907 303.63C378.56 303.535 378.27 303.405 378.036 303.24C377.802 303.067 377.62 302.867 377.49 302.642C377.368 302.417 377.308 302.174 377.308 301.914C377.308 301.429 377.55 300.995 378.036 300.614C378.521 300.233 379.206 300.042 380.09 300.042C380.532 300.042 380.926 300.094 381.273 300.198C381.619 300.293 381.91 300.428 382.144 300.601C382.386 300.766 382.568 300.961 382.69 301.186C382.82 301.411 382.885 301.654 382.885 301.914ZM381.442 302.707C381.728 302.49 381.871 302.226 381.871 301.914C381.871 301.611 381.728 301.351 381.442 301.134C381.164 300.909 380.714 300.796 380.09 300.796C379.76 300.796 379.483 300.826 379.258 300.887C379.032 300.948 378.85 301.03 378.712 301.134C378.573 301.238 378.469 301.359 378.4 301.498C378.339 301.628 378.309 301.767 378.309 301.914C378.309 302.217 378.443 302.482 378.712 302.707C378.989 302.924 379.448 303.032 380.09 303.032C380.722 303.032 381.173 302.924 381.442 302.707ZM385.81 306.776H384.809V306.295H382.092V305.593H384.809V300.172H385.81V306.776ZM384.341 304.826C384.098 304.869 383.812 304.908 383.483 304.943C383.153 304.969 382.794 304.995 382.404 305.021C382.014 305.047 381.619 305.069 381.221 305.086C380.822 305.103 380.436 305.112 380.064 305.112V306.75H379.037V305.138H376.411V304.358H377.646C378.062 304.358 378.556 304.358 379.128 304.358C379.708 304.349 380.311 304.336 380.935 304.319C381.559 304.302 382.165 304.271 382.755 304.228C383.344 304.185 383.873 304.124 384.341 304.046V304.826ZM386.044 311.586H378.543C378.439 311.586 378.365 311.564 378.322 311.521C378.287 311.486 378.27 311.417 378.27 311.313V309.311C378.27 309.207 378.287 309.138 378.322 309.103C378.365 309.06 378.439 309.038 378.543 309.038H384.705V308.141H378.27V307.335H385.511C385.615 307.335 385.684 307.357 385.719 307.4C385.762 307.435 385.784 307.504 385.784 307.608V309.519C385.784 309.623 385.762 309.697 385.719 309.74C385.684 309.775 385.615 309.792 385.511 309.792H379.362V310.78H386.044V311.586Z" fill="#8F9091"/>
<path d="M456.53 310.416H455.503V302.044C455.269 302.295 454.979 302.534 454.632 302.759C454.286 302.984 453.9 303.205 453.475 303.422V302.434C453.865 302.261 454.229 302.048 454.567 301.797C454.914 301.537 455.239 301.247 455.542 300.926H456.283C456.379 300.926 456.444 300.943 456.478 300.978C456.513 301.013 456.53 301.078 456.53 301.173V310.416ZM463.856 310.416H462.829V302.044C462.595 302.295 462.304 302.534 461.958 302.759C461.611 302.984 461.225 303.205 460.801 303.422V302.434C461.191 302.261 461.555 302.048 461.893 301.797C462.239 301.537 462.564 301.247 462.868 300.926H463.609C463.704 300.926 463.769 300.943 463.804 300.978C463.838 301.013 463.856 301.078 463.856 301.173V310.416ZM473.885 301.914C473.885 302.46 473.642 302.906 473.157 303.253C472.671 303.6 471.982 303.773 471.09 303.773C470.648 303.773 470.253 303.725 469.907 303.63C469.56 303.535 469.27 303.405 469.036 303.24C468.802 303.067 468.62 302.867 468.49 302.642C468.368 302.417 468.308 302.174 468.308 301.914C468.308 301.429 468.55 300.995 469.036 300.614C469.521 300.233 470.206 300.042 471.09 300.042C471.532 300.042 471.926 300.094 472.273 300.198C472.619 300.293 472.91 300.428 473.144 300.601C473.386 300.766 473.568 300.961 473.69 301.186C473.82 301.411 473.885 301.654 473.885 301.914ZM472.442 302.707C472.728 302.49 472.871 302.226 472.871 301.914C472.871 301.611 472.728 301.351 472.442 301.134C472.164 300.909 471.714 300.796 471.09 300.796C470.76 300.796 470.483 300.826 470.258 300.887C470.032 300.948 469.85 301.03 469.712 301.134C469.573 301.238 469.469 301.359 469.4 301.498C469.339 301.628 469.309 301.767 469.309 301.914C469.309 302.217 469.443 302.482 469.712 302.707C469.989 302.924 470.448 303.032 471.09 303.032C471.722 303.032 472.173 302.924 472.442 302.707ZM476.81 306.776H475.809V306.295H473.092V305.593H475.809V300.172H476.81V306.776ZM475.341 304.826C475.098 304.869 474.812 304.908 474.483 304.943C474.153 304.969 473.794 304.995 473.404 305.021C473.014 305.047 472.619 305.069 472.221 305.086C471.822 305.103 471.436 305.112 471.064 305.112V306.75H470.037V305.138H467.411V304.358H468.646C469.062 304.358 469.556 304.358 470.128 304.358C470.708 304.349 471.311 304.336 471.935 304.319C472.559 304.302 473.165 304.271 473.755 304.228C474.344 304.185 474.873 304.124 475.341 304.046V304.826ZM477.044 311.586H469.543C469.439 311.586 469.365 311.564 469.322 311.521C469.287 311.486 469.27 311.417 469.27 311.313V309.311C469.27 309.207 469.287 309.138 469.322 309.103C469.365 309.06 469.439 309.038 469.543 309.038H475.705V308.141H469.27V307.335H476.511C476.615 307.335 476.684 307.357 476.719 307.4C476.762 307.435 476.784 307.504 476.784 307.608V309.519C476.784 309.623 476.762 309.697 476.719 309.74C476.684 309.775 476.615 309.792 476.511 309.792H470.362V310.78H477.044V311.586Z" fill="#8F9091"/>
<path d="M547.53 310.416H546.503V302.044C546.269 302.295 545.979 302.534 545.632 302.759C545.286 302.984 544.9 303.205 544.475 303.422V302.434C544.865 302.261 545.229 302.048 545.567 301.797C545.914 301.537 546.239 301.247 546.542 300.926H547.283C547.379 300.926 547.444 300.943 547.478 300.978C547.513 301.013 547.53 301.078 547.53 301.173V310.416ZM556.832 310.416H551.125C551.047 310.416 550.995 310.403 550.969 310.377C550.951 310.351 550.943 310.299 550.943 310.221V309.441C551.142 309.25 551.393 309.003 551.697 308.7C552.009 308.397 552.334 308.063 552.672 307.699C553.018 307.326 553.361 306.941 553.699 306.542C554.045 306.143 554.353 305.749 554.622 305.359C554.899 304.96 555.124 304.583 555.298 304.228C555.471 303.873 555.558 303.561 555.558 303.292C555.566 302.72 555.402 302.295 555.064 302.018C554.734 301.741 554.31 301.602 553.79 301.602C553.287 301.602 552.875 301.771 552.555 302.109C552.243 302.447 552.087 302.902 552.087 303.474H551.021C551.021 303.049 551.09 302.668 551.229 302.33C551.376 301.992 551.575 301.702 551.827 301.459C552.078 301.216 552.373 301.03 552.711 300.9C553.049 300.77 553.417 300.705 553.816 300.705C554.214 300.705 554.583 300.761 554.921 300.874C555.267 300.978 555.566 301.134 555.818 301.342C556.069 301.55 556.264 301.81 556.403 302.122C556.55 302.434 556.624 302.798 556.624 303.214C556.624 303.569 556.546 303.942 556.39 304.332C556.234 304.722 556.026 305.116 555.766 305.515C555.514 305.905 555.224 306.295 554.895 306.685C554.574 307.066 554.245 307.43 553.907 307.777C553.577 308.124 553.257 308.449 552.945 308.752C552.633 309.047 552.36 309.302 552.126 309.519H556.832V310.416ZM564.885 301.914C564.885 302.46 564.642 302.906 564.157 303.253C563.671 303.6 562.982 303.773 562.09 303.773C561.648 303.773 561.253 303.725 560.907 303.63C560.56 303.535 560.27 303.405 560.036 303.24C559.802 303.067 559.62 302.867 559.49 302.642C559.368 302.417 559.308 302.174 559.308 301.914C559.308 301.429 559.55 300.995 560.036 300.614C560.521 300.233 561.206 300.042 562.09 300.042C562.532 300.042 562.926 300.094 563.273 300.198C563.619 300.293 563.91 300.428 564.144 300.601C564.386 300.766 564.568 300.961 564.69 301.186C564.82 301.411 564.885 301.654 564.885 301.914ZM563.442 302.707C563.728 302.49 563.871 302.226 563.871 301.914C563.871 301.611 563.728 301.351 563.442 301.134C563.164 300.909 562.714 300.796 562.09 300.796C561.76 300.796 561.483 300.826 561.258 300.887C561.032 300.948 560.85 301.03 560.712 301.134C560.573 301.238 560.469 301.359 560.4 301.498C560.339 301.628 560.309 301.767 560.309 301.914C560.309 302.217 560.443 302.482 560.712 302.707C560.989 302.924 561.448 303.032 562.09 303.032C562.722 303.032 563.173 302.924 563.442 302.707ZM567.81 306.776H566.809V306.295H564.092V305.593H566.809V300.172H567.81V306.776ZM566.341 304.826C566.098 304.869 565.812 304.908 565.483 304.943C565.153 304.969 564.794 304.995 564.404 305.021C564.014 305.047 563.619 305.069 563.221 305.086C562.822 305.103 562.436 305.112 562.064 305.112V306.75H561.037V305.138H558.411V304.358H559.646C560.062 304.358 560.556 304.358 561.128 304.358C561.708 304.349 562.311 304.336 562.935 304.319C563.559 304.302 564.165 304.271 564.755 304.228C565.344 304.185 565.873 304.124 566.341 304.046V304.826ZM568.044 311.586H560.543C560.439 311.586 560.365 311.564 560.322 311.521C560.287 311.486 560.27 311.417 560.27 311.313V309.311C560.27 309.207 560.287 309.138 560.322 309.103C560.365 309.06 560.439 309.038 560.543 309.038H566.705V308.141H560.27V307.335H567.511C567.615 307.335 567.684 307.357 567.719 307.4C567.762 307.435 567.784 307.504 567.784 307.608V309.519C567.784 309.623 567.762 309.697 567.719 309.74C567.684 309.775 567.615 309.792 567.511 309.792H561.362V310.78H568.044V311.586Z" fill="#8F9091"/>
<path d="M44.1468 288.545C44.4328 288.372 44.6581 288.129 44.8228 287.817C44.9961 287.505 45.1261 287.163 45.2128 286.79C45.3081 286.417 45.3688 286.04 45.3948 285.659C45.4208 285.278 45.4338 284.931 45.4338 284.619C45.4338 284.255 45.4121 283.835 45.3688 283.358C45.3255 282.873 45.2301 282.413 45.0828 281.98C44.9441 281.547 44.7361 281.183 44.4588 280.888C44.1815 280.585 43.8088 280.433 43.3408 280.433C42.8815 280.433 42.5175 280.585 42.2488 280.888C41.9888 281.183 41.7895 281.547 41.6508 281.98C41.5208 282.413 41.4385 282.873 41.4038 283.358C41.3691 283.835 41.3518 284.255 41.3518 284.619C41.3518 284.862 41.3561 285.13 41.3648 285.425C41.3821 285.72 41.4125 286.023 41.4558 286.335C41.4991 286.638 41.5641 286.937 41.6508 287.232C41.7375 287.518 41.8545 287.774 42.0018 287.999C42.1491 288.224 42.3311 288.406 42.5478 288.545C42.7645 288.684 43.0288 288.753 43.3408 288.753C43.6615 288.753 43.9301 288.684 44.1468 288.545ZM45.9018 288.051C45.6765 288.528 45.3558 288.913 44.9398 289.208C44.5238 289.511 43.9908 289.663 43.3408 289.663C42.6995 289.663 42.1795 289.511 41.7808 289.208C41.3821 288.913 41.0701 288.528 40.8448 288.051C40.6195 287.574 40.4678 287.037 40.3898 286.439C40.3118 285.832 40.2728 285.226 40.2728 284.619C40.2728 284.012 40.3118 283.406 40.3898 282.799C40.4678 282.192 40.6195 281.646 40.8448 281.161C41.0701 280.676 41.3821 280.286 41.7808 279.991C42.1795 279.688 42.6995 279.536 43.3408 279.536C43.9908 279.536 44.5195 279.688 44.9268 279.991C45.3428 280.286 45.6678 280.676 45.9018 281.161C46.1358 281.646 46.2961 282.192 46.3828 282.799C46.4695 283.406 46.5128 284.012 46.5128 284.619C46.5128 285.243 46.4695 285.85 46.3828 286.439C46.2961 287.02 46.1358 287.557 45.9018 288.051Z" fill="#8F9091"/>
<circle cx="463" cy="63" r="5" fill="#0074E1"/>
<path d="M480.682 63.107C480.47 63.0117 480.246 62.8907 480.011 62.744C479.784 62.59 479.56 62.4177 479.34 62.227C479.12 62.029 478.911 61.8163 478.713 61.589C478.523 61.3543 478.369 61.105 478.251 60.841C478.149 61.127 478.009 61.3947 477.833 61.644C477.665 61.8933 477.47 62.128 477.25 62.348C477.03 62.5607 476.796 62.755 476.546 62.931C476.304 63.107 476.062 63.261 475.82 63.393L475.149 62.788C475.509 62.6193 475.846 62.4177 476.161 62.183C476.484 61.9483 476.766 61.677 477.008 61.369C477.243 61.061 477.43 60.7237 477.569 60.357C477.716 59.9903 477.789 59.587 477.789 59.147V57.926H478.691V59.07C478.691 59.488 478.761 59.873 478.9 60.225C479.047 60.577 479.238 60.896 479.472 61.182C479.707 61.468 479.978 61.7173 480.286 61.93C480.602 62.1427 480.924 62.3077 481.254 62.425L480.682 63.107ZM483.377 64.834H482.519V57.684H483.377V64.834ZM483.663 67.232H477.305C477.217 67.232 477.155 67.2137 477.118 67.177C477.089 67.1477 477.074 67.089 477.074 67.001V64.119H477.954V66.484H483.663V67.232ZM491.419 67.43H490.539V63.118H488.075V67.353H487.195V63.118H484.786V62.37H491.309C491.36 62.106 491.412 61.8237 491.463 61.523C491.514 61.215 491.562 60.9033 491.606 60.588C491.643 60.2727 491.676 59.961 491.705 59.653C491.742 59.345 491.767 59.0553 491.782 58.784H485.842V58.036H492.464C492.552 58.036 492.611 58.0543 492.64 58.091C492.677 58.1203 492.695 58.179 492.695 58.267C492.673 58.575 492.644 58.9123 492.607 59.279C492.57 59.6383 492.53 60.005 492.486 60.379C492.442 60.753 492.391 61.1123 492.332 61.457C492.281 61.8017 492.229 62.106 492.178 62.37H493.751V63.118H491.419V67.43Z" fill="black"/>
<circle cx="512" cy="63" r="5" fill="#DD0101"/>
<path d="M530.694 61.963C530.364 62.0363 530.016 62.095 529.649 62.139C529.283 62.183 528.89 62.2197 528.472 62.249C528.054 62.2783 527.636 62.3003 527.218 62.315C526.808 62.3223 526.423 62.326 526.063 62.326H525.073C524.985 62.326 524.923 62.3113 524.886 62.282C524.857 62.2453 524.842 62.183 524.842 62.095V58.267C524.842 58.179 524.857 58.1203 524.886 58.091C524.923 58.0543 524.985 58.036 525.073 58.036H529.352V58.729H525.689V59.818H529.253V60.467H525.689V61.622H526.8C527.094 61.622 527.416 61.6147 527.768 61.6C528.128 61.578 528.487 61.5523 528.846 61.523C529.198 61.4937 529.536 61.4607 529.858 61.424C530.181 61.3873 530.46 61.347 530.694 61.303V61.963ZM532.014 62.744H531.156V57.684H532.014V59.631H533.334V60.39H532.014V62.744ZM532.245 67.342H526.107C526.019 67.342 525.957 67.3237 525.92 67.287C525.891 67.2577 525.876 67.199 525.876 67.111V65.219C525.876 65.131 525.891 65.0723 525.92 65.043C525.957 65.0063 526.019 64.988 526.107 64.988H531.101V63.976H525.876V63.272H531.805C531.893 63.272 531.948 63.2903 531.97 63.327C532 63.3563 532.014 63.415 532.014 63.503V65.406C532.014 65.494 531.996 65.5563 531.959 65.593C531.93 65.6223 531.871 65.637 531.783 65.637H526.789V66.638H532.245V67.342ZM540.804 65.186C540.584 65.2227 540.305 65.2593 539.968 65.296C539.631 65.3253 539.253 65.351 538.835 65.373C538.417 65.4023 537.984 65.4243 537.537 65.439C537.09 65.4537 536.646 65.461 536.206 65.461H534.193V64.713H536.954V62.953H535.139C535.051 62.953 534.989 62.9383 534.952 62.909C534.923 62.8723 534.908 62.81 534.908 62.722V58.377C534.908 58.289 534.923 58.2303 534.952 58.201C534.989 58.1643 535.051 58.146 535.139 58.146H539.792V58.872H535.755V60.192H539.759V60.896H535.755V62.227H539.891V62.953H537.845V64.691C538.043 64.691 538.274 64.6837 538.538 64.669C538.809 64.6543 539.084 64.636 539.363 64.614C539.634 64.592 539.898 64.57 540.155 64.548C540.412 64.5187 540.628 64.4893 540.804 64.46V65.186ZM542.058 67.43H541.178V57.695H542.058V67.43Z" fill="black"/>
<circle cx="561" cy="63" r="5" fill="#2CCF88"/>
<circle cx="101" cy="173" r="5" fill="#2CCF88"/>
<circle cx="192" cy="144" r="5" fill="#2CCF88"/>
<circle cx="283" cy="183" r="5" fill="#2CCF88"/>
<circle cx="374" cy="154" r="5" fill="#2CCF88"/>
<circle cx="465" cy="118" r="5" fill="#2CCF88"/>
<circle cx="556" cy="108" r="5" fill="#2CCF88"/>
<path d="M581.234 61.71H574.612C574.524 61.71 574.462 61.6953 574.425 61.666C574.396 61.6293 574.381 61.567 574.381 61.479V57.981H575.25V60.962H581.234V61.71ZM582.147 63.888H578.154V67.43H577.252V63.888H573.215V63.14H582.147V63.888ZM588.308 58.872H586.394V59.323C586.394 59.697 586.456 60.0417 586.581 60.357C586.706 60.665 586.867 60.94 587.065 61.182C587.307 61.4753 587.586 61.7283 587.901 61.941C588.224 62.1463 588.561 62.304 588.913 62.414C588.81 62.5093 588.704 62.6193 588.594 62.744C588.484 62.8613 588.4 62.964 588.341 63.052C588.143 62.964 587.927 62.8503 587.692 62.711C587.457 62.5643 587.23 62.3993 587.01 62.216C586.805 62.0547 586.61 61.8713 586.427 61.666C586.244 61.4533 586.086 61.215 585.954 60.951C585.851 61.215 585.719 61.4607 585.558 61.688C585.404 61.908 585.235 62.1133 585.052 62.304C584.825 62.5167 584.579 62.711 584.315 62.887C584.058 63.063 583.802 63.217 583.545 63.349C583.508 63.3123 583.461 63.2683 583.402 63.217L583.226 63.063C583.16 63.0117 583.094 62.9603 583.028 62.909C582.969 62.8577 582.914 62.81 582.863 62.766C583.244 62.5973 583.611 62.3883 583.963 62.139C584.315 61.8897 584.619 61.5963 584.876 61.259C585.067 60.995 585.217 60.7017 585.327 60.379C585.444 60.049 585.503 59.686 585.503 59.29V58.872H583.556V58.135H588.308V58.872ZM591.08 67.496H590.222V64.801H584.612V64.053H590.849C590.937 64.053 590.996 64.0713 591.025 64.108C591.062 64.1373 591.08 64.196 591.08 64.284V67.496ZM591.091 63.536H590.233V60.643H588.198V59.884H590.233V57.684H591.091V63.536Z" fill="black"/>
<rect x="79" y="186" width="18" height="99" fill="#0074E1"/>
<rect x="106" y="230" width="18" height="55" fill="#DD0101"/>
<rect x="170" y="211" width="18" height="74" fill="#0074E1"/>
<rect x="197" y="252" width="18" height="33" fill="#DD0101"/>
<rect x="261" y="250.881" width="18" height="34.1186" fill="#0074E1"/>
<rect x="288" y="219" width="18" height="66" fill="#DD0101"/>
<rect x="352" y="224" width="18" height="62" fill="#0074E1"/>
<rect x="379" y="231" width="18" height="55" fill="#DD0101"/>
<rect x="443" y="216" width="18" height="70" fill="#0074E1"/>
<rect x="470" y="258.727" width="18" height="27.2727" fill="#DD0101"/>
<rect x="534" y="176" width="18" height="110" fill="#0074E1"/>
<rect x="561" y="238" width="18" height="48" fill="#DD0101"/>
<line x1="100.848" y1="172.524" x2="191.848" y2="143.524" stroke="#2CCF88"/>
<line x1="192.197" y1="143.54" x2="283.197" y2="182.54" stroke="#2CCF88"/>
<line x1="282.848" y1="182.524" x2="373.848" y2="153.524" stroke="#2CCF88"/>
<line x1="373.816" y1="153.535" x2="464.816" y2="117.535" stroke="#2CCF88"/>
<line x1="464.945" y1="117.503" x2="555.945" y2="107.503" stroke="#2CCF88"/>
</svg>
