<svg width="26" height="26" viewBox="0 0 26 26" fill="none" xmlns="http://www.w3.org/2000/svg">
<path d="M13 5.6875C13 7.93116 11.1812 9.75 8.9375 9.75C6.69384 9.75 4.875 7.93116 4.875 5.6875C4.875 3.44384 6.69384 1.625 8.9375 1.625C11.1812 1.625 13 3.44384 13 5.6875Z" fill="#0A5FAE"/>
<path d="M4.875 13C2.18261 13 0 15.1826 0 17.875V24.375H13V13H4.875Z" fill="#0A5FAE"/>
<path d="M21.125 13H16.25V24.375H26V17.875C26 15.1826 23.8174 13 21.125 13Z" fill="#0A5FAE"/>
<path d="M19.5 9.75C21.2949 9.75 22.75 8.29493 22.75 6.5C22.75 4.70507 21.2949 3.25 19.5 3.25C17.7051 3.25 16.25 4.70507 16.25 6.5C16.25 8.29493 17.7051 9.75 19.5 9.75Z" fill="#0A5FAE"/>
</svg>
