<svg width="1179" height="808" viewBox="0 0 1179 808" fill="none" xmlns="http://www.w3.org/2000/svg">
<g opacity="0.63">
<path d="M1179 547.146C1137.3 511.842 1095.59 476.538 1053.89 452.811C1012.18 429.084 970.482 416.934 928.778 396.21C887.073 375.486 845.37 346.192 803.667 367.909C761.963 389.626 720.26 462.358 678.555 471.678C636.852 480.998 595.148 426.901 553.445 386.776C511.74 346.652 470.037 320.49 428.333 339.609C386.63 358.728 344.927 423.127 303.222 424.51C261.518 425.893 219.815 364.259 178.112 339.609C136.406 314.958 94.7032 327.281 53 339.609V0.000915527C94.7032 0.000915527 136.406 0.000915527 178.112 0.000915527C219.815 0.000915527 261.518 0.000915527 303.222 0.000915527C344.927 0.000915527 386.63 0.000915527 428.333 0.000915527C470.037 0.000915527 511.74 0.000915527 553.445 0.000915527C595.148 0.000915527 636.852 0.000915527 678.555 0.000915527C720.26 0.000915527 761.963 0.000915527 803.667 0.000915527C845.37 0.000915527 887.073 0.000915527 928.778 0.000915527C970.482 0.000915527 1012.18 0.000915527 1053.89 0.000915527C1095.59 0.000915527 1137.3 0.000915527 1179 0.000915527V547.146Z" fill="#79C7F1"/>
</g>
<g opacity="0.63">
<path d="M1179 419.022C1137.3 471.35 1095.59 523.682 1053.89 518.789C1012.18 513.897 970.482 451.784 928.778 458.929C887.073 466.075 845.37 542.479 803.667 532.092C761.963 521.704 720.26 424.524 678.555 419.022C636.852 413.52 595.148 499.696 553.445 518.789C511.74 537.883 470.037 489.897 428.333 472.231C386.63 454.566 344.927 467.22 303.222 485.534C261.518 503.847 219.815 527.822 178.112 538.743C136.407 549.663 94.7033 547.528 53 545.394V0.00146484C94.7033 0.00146484 136.407 0.00146484 178.112 0.00146484C219.815 0.00146484 261.518 0.00146484 303.222 0.00146484C344.927 0.00146484 386.63 0.00146484 428.333 0.00146484C470.037 0.00146484 511.74 0.00146484 553.445 0.00146484C595.148 0.00146484 636.852 0.00146484 678.555 0.00146484C720.26 0.00146484 761.963 0.00146484 803.667 0.00146484C845.37 0.00146484 887.073 0.00146484 928.778 0.00146484C970.482 0.00146484 1012.18 0.00146484 1053.89 0.00146484C1095.59 0.00146484 1137.3 0.00146484 1179 0.00146484V419.022Z" fill="#BFDBFE"/>
<path d="M1179 299.301C1137.3 384.589 1095.59 469.873 1053.89 472.231C1012.18 474.588 970.482 394.015 928.778 359.161C887.073 324.307 845.37 335.179 803.667 352.51C761.963 369.842 720.26 393.639 678.555 379.115C636.852 364.59 595.148 311.743 553.445 332.557C511.74 353.37 470.037 447.844 428.333 458.928C386.63 470.012 344.927 397.703 303.222 359.161C261.518 320.62 219.815 315.846 178.112 325.906C136.407 335.966 94.7033 360.868 53 385.766V0.000671387C94.7033 0.000671387 136.407 0.000671387 178.112 0.000671387C219.815 0.000671387 261.518 0.000671387 303.222 0.000671387C344.927 0.000671387 386.63 0.000671387 428.333 0.000671387C470.037 0.000671387 511.74 0.000671387 553.445 0.000671387C595.148 0.000671387 636.852 0.000671387 678.555 0.000671387C720.26 0.000671387 761.963 0.000671387 803.667 0.000671387C845.37 0.000671387 887.073 0.000671387 928.778 0.000671387C970.482 0.000671387 1012.18 0.000671387 1053.89 0.000671387C1095.59 0.000671387 1137.3 0.000671387 1179 0.000671387V299.301Z" fill="#79C7F1"/>
</g>
</svg>
